  0
SECTION
  2
HEADER
  9
$ACADVER
  1
AC1009
  9
$INSUNITS
 70
     1
  0
ENDSEC
  0
SECTION
  2
TABLES
  0
TABLE
  2
LAYER
 70
     8
  0
LAYER
  2
0
 62
     7
 70
0
  6
CONTINUOUS
  0
LAYER
  2
1
 62
     1
 70
0
  6
CONTINUOUS
  0
LAYER
  2
2
 62
     2
 70
0
  6
CONTINUOUS
  0
LAYER
  2
3
 62
     3
 70
0
  6
CONTINUOUS
  0
LAYER
  2
4
 62
     4
 70
0
  6
CONTINUOUS
  0
LAYER
  2
5
 62
     5
 70
0
  6
CONTINUOUS
  0
LAYER
  2
6
 62
     6
 70
0
  6
CONTINUOUS
  0
LAYER
  2
7
 62
     7
 70
0
  6
CONTINUOUS
  0
ENDTAB
  0
TABLE
  2
STYLE
 70
     1
  0
STYLE
 70
     0
  2
STANDARD
  3
TXT
 40
0.00
 41
1.00
 42
1.00
 50
0.00
 71
     0
  0
ENDTAB
  0
ENDSEC
  0
SECTION
  2
BLOCKS
  0
BLOCK
  8
0
  2
EPAD
 70
0
 10
0.0
 20
0.0
  0
POLYLINE
  8
0
 66
1
 70
1
 40
0.5
 41
0.5
  0
VERTEX
  8
0
 10
-0.25
 20
0.0
 42
1.0
  0
VERTEX
  8
0
 10
0.25
 20
0.0
 42
1.0
  0
SEQEND
  8
0
  0
ENDBLK
  8
0
  0
BLOCK
  8
0
  2
RPAD
 70
0
 10
0.0
 20
0.0
  0
TRACE
  8
0
 10
-0.5
 20
-0.5
 11
-0.5
 21
0.5
 12
0.5
 22
-0.5
 13
0.5
 23
0.5
  0
ENDBLK
  8
0
  0
ENDSEC
0
SECTION
2
ENTITIES
0
INSERT
8
0
2
EPAD
10
-0.175000
20
0.750000
41
0.040000
42
0.040000
0
INSERT
8
0
2
EPAD
10
0.375000
20
-0.250000
41
0.040000
42
0.040000
0
INSERT
8
0
2
EPAD
10
0.375000
20
-0.150000
41
0.040000
42
0.040000
0
INSERT
8
0
2
EPAD
10
0.375000
20
-0.350000
41
0.040000
42
0.040000
0
INSERT
8
0
2
EPAD
10
-0.925000
20
0.800000
41
0.040000
42
0.040000
0
POLYLINE
8
0
66
1
70
1
40
0
41
0
0
VERTEX
8
0
10
-0.050000
20
0.780000
0
VERTEX
8
0
10
0.000000
20
0.780000
0
VERTEX
8
0
10
0.001022
20
0.779900
0
VERTEX
8
0
10
0.001968
20
0.779614
0
VERTEX
8
0
10
0.002818
20
0.779159
0
VERTEX
8
0
10
0.003555
20
0.778555
0
VERTEX
8
0
10
0.004159
20
0.777818
0
VERTEX
8
0
10
0.004614
20
0.776968
0
VERTEX
8
0
10
0.004900
20
0.776022
0
VERTEX
8
0
10
0.005000
20
0.775000
0
VERTEX
8
0
10
0.005000
20
0.725000
0
VERTEX
8
0
10
0.004900
20
0.723978
0
VERTEX
8
0
10
0.004614
20
0.723032
0
VERTEX
8
0
10
0.004159
20
0.722182
0
VERTEX
8
0
10
0.003555
20
0.721445
0
VERTEX
8
0
10
0.002818
20
0.720841
0
VERTEX
8
0
10
0.001968
20
0.720386
0
VERTEX
8
0
10
0.001022
20
0.720100
0
VERTEX
8
0
10
0.000000
20
0.720000
0
VERTEX
8
0
10
-0.050000
20
0.720000
0
VERTEX
8
0
10
-0.051022
20
0.720100
0
VERTEX
8
0
10
-0.051968
20
0.720386
0
VERTEX
8
0
10
-0.052818
20
0.720841
0
VERTEX
8
0
10
-0.053555
20
0.721445
0
VERTEX
8
0
10
-0.054159
20
0.722182
0
VERTEX
8
0
10
-0.054614
20
0.723032
0
VERTEX
8
0
10
-0.054900
20
0.723978
0
VERTEX
8
0
10
-0.055000
20
0.725000
0
VERTEX
8
0
10
-0.055000
20
0.775000
0
VERTEX
8
0
10
-0.054900
20
0.776022
0
VERTEX
8
0
10
-0.054614
20
0.776968
0
VERTEX
8
0
10
-0.054159
20
0.777818
0
VERTEX
8
0
10
-0.053555
20
0.778555
0
VERTEX
8
0
10
-0.052818
20
0.779159
0
VERTEX
8
0
10
-0.051968
20
0.779614
0
VERTEX
8
0
10
-0.051022
20
0.779900
0
VERTEX
8
0
10
-0.050000
20
0.780000
0
SEQEND
8
0
0
INSERT
8
0
2
EPAD
10
-0.025000
20
0.650000
41
0.060000
42
0.060000
0
INSERT
8
0
2
EPAD
10
-0.025000
20
0.550000
41
0.060000
42
0.060000
0
INSERT
8
0
2
EPAD
10
-0.025000
20
0.450000
41
0.060000
42
0.060000
0
INSERT
8
0
2
EPAD
10
-0.025000
20
0.350000
41
0.060000
42
0.060000
0
INSERT
8
0
2
EPAD
10
-0.025000
20
0.250000
41
0.060000
42
0.060000
0
INSERT
8
0
2
EPAD
10
-0.025000
20
0.150000
41
0.060000
42
0.060000
0
INSERT
8
0
2
EPAD
10
-0.025000
20
0.050000
41
0.060000
42
0.060000
0
INSERT
8
0
2
EPAD
10
-0.025000
20
-0.050000
41
0.060000
42
0.060000
0
INSERT
8
0
2
EPAD
10
-0.025000
20
-0.150000
41
0.060000
42
0.060000
0
INSERT
8
0
2
EPAD
10
-0.025000
20
-0.250000
41
0.060000
42
0.060000
0
INSERT
8
0
2
EPAD
10
-0.025000
20
-0.350000
41
0.060000
42
0.060000
0
INSERT
8
0
2
EPAD
10
-0.025000
20
-0.450000
41
0.060000
42
0.060000
0
INSERT
8
0
2
EPAD
10
-0.025000
20
-0.550000
41
0.060000
42
0.060000
0
INSERT
8
0
2
EPAD
10
0.275000
20
-0.550000
41
0.060000
42
0.060000
0
INSERT
8
0
2
EPAD
10
0.275000
20
-0.450000
41
0.060000
42
0.060000
0
INSERT
8
0
2
EPAD
10
0.275000
20
-0.350000
41
0.060000
42
0.060000
0
INSERT
8
0
2
EPAD
10
0.275000
20
-0.250000
41
0.060000
42
0.060000
0
INSERT
8
0
2
EPAD
10
0.275000
20
-0.150000
41
0.060000
42
0.060000
0
INSERT
8
0
2
EPAD
10
0.275000
20
-0.050000
41
0.060000
42
0.060000
0
INSERT
8
0
2
EPAD
10
0.275000
20
0.050000
41
0.060000
42
0.060000
0
INSERT
8
0
2
EPAD
10
0.275000
20
0.150000
41
0.060000
42
0.060000
0
INSERT
8
0
2
EPAD
10
0.275000
20
0.250000
41
0.060000
42
0.060000
0
INSERT
8
0
2
EPAD
10
0.275000
20
0.350000
41
0.060000
42
0.060000
0
INSERT
8
0
2
EPAD
10
0.275000
20
0.450000
41
0.060000
42
0.060000
0
INSERT
8
0
2
EPAD
10
0.275000
20
0.550000
41
0.060000
42
0.060000
0
INSERT
8
0
2
EPAD
10
0.275000
20
0.650000
41
0.060000
42
0.060000
0
INSERT
8
0
2
EPAD
10
0.275000
20
0.749213
41
0.060000
42
0.060000
0
INSERT
8
0
2
EPAD
10
1.138332
20
-0.650000
41
0.070000
42
0.070000
0
INSERT
8
0
2
EPAD
10
1.058332
20
-0.650000
41
0.070000
42
0.070000
0
INSERT
8
0
2
EPAD
10
0.978332
20
-0.650000
41
0.070000
42
0.070000
0
INSERT
8
0
2
EPAD
10
-1.475000
20
0.800000
41
0.060000
42
0.060000
0
INSERT
8
0
2
EPAD
10
-1.475000
20
0.900000
41
0.060000
42
0.060000
0
INSERT
8
0
2
EPAD
10
-0.825000
20
0.900000
41
0.060000
42
0.060000
0
INSERT
8
0
2
EPAD
10
-0.725000
20
0.900000
41
0.060000
42
0.060000
0
INSERT
8
0
2
EPAD
10
-0.625000
20
0.900000
41
0.060000
42
0.060000
0
INSERT
8
0
2
EPAD
10
-0.525000
20
0.900000
41
0.060000
42
0.060000
0
INSERT
8
0
2
EPAD
10
-0.425000
20
0.900000
41
0.060000
42
0.060000
0
INSERT
8
0
2
EPAD
10
-0.325000
20
0.900000
41
0.060000
42
0.060000
0
INSERT
8
0
2
EPAD
10
-0.225000
20
0.900000
41
0.060000
42
0.060000
0
INSERT
8
0
2
EPAD
10
-0.125000
20
0.900000
41
0.060000
42
0.060000
0
INSERT
8
0
2
EPAD
10
-0.025000
20
0.900000
41
0.060000
42
0.060000
0
INSERT
8
0
2
EPAD
10
0.075000
20
0.900000
41
0.060000
42
0.060000
0
INSERT
8
0
2
EPAD
10
-1.475000
20
0.650000
41
0.080000
42
0.080000
0
INSERT
8
0
2
EPAD
10
-1.075000
20
0.650000
41
0.080000
42
0.080000
0
INSERT
8
0
2
EPAD
10
0.175000
20
0.900000
41
0.060000
42
0.060000
0
INSERT
8
0
2
EPAD
10
0.275000
20
0.900000
41
0.060000
42
0.060000
0
INSERT
8
0
2
EPAD
10
0.975000
20
0.680000
41
0.070000
42
0.070000
0
INSERT
8
0
2
EPAD
10
0.975000
20
0.600000
41
0.070000
42
0.070000
0
INSERT
8
0
2
EPAD
10
0.975000
20
0.520000
41
0.070000
42
0.070000
0
INSERT
8
0
2
EPAD
10
0.975000
20
0.380000
41
0.070000
42
0.070000
0
INSERT
8
0
2
EPAD
10
0.975000
20
0.300000
41
0.070000
42
0.070000
0
INSERT
8
0
2
EPAD
10
0.975000
20
0.220000
41
0.070000
42
0.070000
0
INSERT
8
0
2
EPAD
10
0.425000
20
0.600000
41
0.080000
42
0.080000
0
INSERT
8
0
2
EPAD
10
0.825000
20
0.600000
41
0.080000
42
0.080000
0
INSERT
8
0
2
EPAD
10
0.425000
20
0.300000
41
0.080000
42
0.080000
0
INSERT
8
0
2
EPAD
10
0.825000
20
0.300000
41
0.080000
42
0.080000
0
INSERT
8
0
2
EPAD
10
1.125000
20
0.900000
41
0.060000
42
0.060000
0
INSERT
8
0
2
EPAD
10
1.225000
20
0.900000
41
0.060000
42
0.060000
0
INSERT
8
0
2
EPAD
10
1.325000
20
0.900000
41
0.060000
42
0.060000
0
INSERT
8
0
2
EPAD
10
1.425000
20
0.900000
41
0.060000
42
0.060000
0
INSERT
8
0
2
EPAD
10
1.425000
20
0.750000
41
0.080000
42
0.080000
0
INSERT
8
0
2
EPAD
10
1.425000
20
0.350000
41
0.080000
42
0.080000
0
INSERT
8
0
2
EPAD
10
1.225000
20
0.750000
41
0.080000
42
0.080000
0
INSERT
8
0
2
EPAD
10
1.225000
20
0.350000
41
0.080000
42
0.080000
0
INSERT
8
0
2
EPAD
10
1.375000
20
-0.086668
41
0.070000
42
0.070000
0
INSERT
8
0
2
EPAD
10
1.375000
20
-0.166668
41
0.070000
42
0.070000
0
INSERT
8
0
2
EPAD
10
1.375000
20
-0.246668
41
0.070000
42
0.070000
0
INSERT
8
0
2
EPAD
10
1.375000
20
-0.386668
41
0.070000
42
0.070000
0
INSERT
8
0
2
EPAD
10
1.375000
20
-0.466668
41
0.070000
42
0.070000
0
INSERT
8
0
2
EPAD
10
1.375000
20
-0.546668
41
0.070000
42
0.070000
0
INSERT
8
0
2
EPAD
10
1.375000
20
0.213332
41
0.070000
42
0.070000
0
INSERT
8
0
2
EPAD
10
1.375000
20
0.133332
41
0.070000
42
0.070000
0
INSERT
8
0
2
EPAD
10
1.375000
20
0.053332
41
0.070000
42
0.070000
0
INSERT
8
0
2
EPAD
10
0.575000
20
0.050000
41
0.080000
42
0.080000
0
INSERT
8
0
2
EPAD
10
0.975000
20
0.050000
41
0.080000
42
0.080000
0
INSERT
8
0
2
EPAD
10
0.575000
20
-0.100000
41
0.080000
42
0.080000
0
INSERT
8
0
2
EPAD
10
0.975000
20
-0.100000
41
0.080000
42
0.080000
0
INSERT
8
0
2
EPAD
10
0.575000
20
-0.250000
41
0.080000
42
0.080000
0
INSERT
8
0
2
EPAD
10
0.975000
20
-0.250000
41
0.080000
42
0.080000
0
INSERT
8
0
2
EPAD
10
0.575000
20
-0.400000
41
0.080000
42
0.080000
0
INSERT
8
0
2
EPAD
10
0.975000
20
-0.400000
41
0.080000
42
0.080000
0
INSERT
8
0
2
EPAD
10
1.625000
20
0.150000
41
0.060000
42
0.060000
0
INSERT
8
0
2
EPAD
10
1.625000
20
-0.450000
41
0.060000
42
0.060000
0
INSERT
8
0
2
EPAD
10
1.625000
20
-0.150000
41
0.060000
42
0.060000
0
INSERT
8
0
2
EPAD
10
-0.525000
20
-0.400000
41
0.080000
42
0.080000
0
INSERT
8
0
2
EPAD
10
-0.125000
20
-0.400000
41
0.080000
42
0.080000
0
INSERT
8
0
2
EPAD
10
-0.525000
20
-0.550000
41
0.080000
42
0.080000
0
INSERT
8
0
2
EPAD
10
-0.125000
20
-0.550000
41
0.080000
42
0.080000
0
INSERT
8
0
2
EPAD
10
-0.525000
20
-0.700000
41
0.080000
42
0.080000
0
INSERT
8
0
2
EPAD
10
-0.125000
20
-0.700000
41
0.080000
42
0.080000
0
INSERT
8
0
2
EPAD
10
-0.675000
20
-0.400000
41
0.060000
42
0.060000
0
INSERT
8
0
2
EPAD
10
-0.825000
20
-0.400000
41
0.060000
42
0.060000
0
INSERT
8
0
2
EPAD
10
-0.675000
20
-0.550000
41
0.060000
42
0.060000
0
INSERT
8
0
2
EPAD
10
-0.825000
20
-0.550000
41
0.060000
42
0.060000
0
INSERT
8
0
2
EPAD
10
-0.825000
20
-0.700000
41
0.060000
42
0.060000
0
INSERT
8
0
2
EPAD
10
-0.675000
20
-0.700000
41
0.060000
42
0.060000
0
INSERT
8
0
2
EPAD
10
1.725000
20
0.150000
41
0.060000
42
0.060000
0
INSERT
8
0
2
EPAD
10
1.725000
20
-0.150000
41
0.060000
42
0.060000
0
INSERT
8
0
2
EPAD
10
1.725000
20
-0.450000
41
0.060000
42
0.060000
0
INSERT
8
0
2
EPAD
10
-0.375000
20
0.140945
41
0.038583
42
0.038583
0
INSERT
8
0
2
EPAD
10
-0.375000
20
0.200000
41
0.038583
42
0.038583
0
INSERT
8
0
2
EPAD
10
-0.175000
20
0.200000
41
0.080000
42
0.080000
0
INSERT
8
0
2
EPAD
10
-0.175000
20
0.000000
41
0.080000
42
0.080000
0
INSERT
8
0
2
EPAD
10
1.625000
20
0.350000
41
0.050000
42
0.050000
0
INSERT
8
0
2
EPAD
10
1.725000
20
0.350000
41
0.050000
42
0.050000
0
INSERT
8
0
2
EPAD
10
1.825000
20
0.350000
41
0.050000
42
0.050000
0
INSERT
8
0
2
EPAD
10
1.825000
20
0.450000
41
0.060000
42
0.060000
0
POLYLINE
8
0
66
1
40
0.008000
41
0.008000
0
VERTEX
8
0
10
-1.625000
20
-0.850000
0
VERTEX
8
0
10
1.875000
20
-0.850000
0
VERTEX
8
0
10
1.875000
20
1.100000
0
VERTEX
8
0
10
-1.625000
20
1.100000
0
VERTEX
8
0
10
-1.625000
20
-0.850000
0
SEQEND
8
0
0
POLYLINE
8
0
66
1
40
0.008000
41
0.008000
0
VERTEX
8
0
10
0.025000
20
0.774213
0
VERTEX
8
0
10
0.025000
20
-0.575787
0
VERTEX
8
0
10
0.225000
20
-0.575787
0
VERTEX
8
0
10
0.225000
20
0.774213
0
SEQEND
8
0
0
POLYLINE
8
0
66
1
40
0.008000
41
0.008000
0
VERTEX
8
0
10
0.025000
20
0.774213
0
VERTEX
8
0
10
0.075000
20
0.774213
0
SEQEND
8
0
0
POLYLINE
8
0
66
1
40
0.008000
41
0.008000
0
VERTEX
8
0
10
0.225000
20
0.774213
0
VERTEX
8
0
10
0.175000
20
0.774213
0
SEQEND
8
0
0
POLYLINE
8
0
66
1
40
0.008000
41
0.008000
0
VERTEX
8
0
10
0.075000
20
0.774213
0
VERTEX
8
0
10
0.075995
20
0.763989
0
VERTEX
8
0
10
0.078857
20
0.754535
0
VERTEX
8
0
10
0.083405
20
0.746033
0
VERTEX
8
0
10
0.089453
20
0.738666
0
VERTEX
8
0
10
0.096820
20
0.732617
0
VERTEX
8
0
10
0.105322
20
0.728070
0
VERTEX
8
0
10
0.114777
20
0.725207
0
VERTEX
8
0
10
0.125000
20
0.724213
0
SEQEND
8
0
0
POLYLINE
8
0
66
1
40
0.008000
41
0.008000
0
VERTEX
8
0
10
0.175000
20
0.774213
0
VERTEX
8
0
10
0.174005
20
0.763989
0
VERTEX
8
0
10
0.171143
20
0.754535
0
VERTEX
8
0
10
0.166595
20
0.746033
0
VERTEX
8
0
10
0.160547
20
0.738666
0
VERTEX
8
0
10
0.153180
20
0.732617
0
VERTEX
8
0
10
0.144678
20
0.728070
0
VERTEX
8
0
10
0.135224
20
0.725207
0
VERTEX
8
0
10
0.125000
20
0.724213
0
SEQEND
8
0
0
CIRCLE
8
0
10
0.041000
20
0.754213
40
0.002828
0
POLYLINE
8
0
66
1
40
0.008000
41
0.008000
0
VERTEX
8
0
10
1.158332
20
-0.585000
0
VERTEX
8
0
10
0.958332
20
-0.585000
0
SEQEND
8
0
0
POLYLINE
8
0
66
1
40
0.008000
41
0.008000
0
VERTEX
8
0
10
1.188332
20
-0.650000
0
VERTEX
8
0
10
1.186457
20
-0.634922
0
VERTEX
8
0
10
1.180832
20
-0.619375
0
VERTEX
8
0
10
1.171457
20
-0.602891
0
VERTEX
8
0
10
1.158332
20
-0.585000
0
SEQEND
8
0
0
POLYLINE
8
0
66
1
40
0.008000
41
0.008000
0
VERTEX
8
0
10
1.188332
20
-0.650000
0
VERTEX
8
0
10
1.187296
20
-0.675558
0
VERTEX
8
0
10
1.180808
20
-0.699194
0
VERTEX
8
0
10
1.169419
20
-0.720450
0
VERTEX
8
0
10
1.153684
20
-0.738867
0
VERTEX
8
0
10
1.134154
20
-0.753989
0
VERTEX
8
0
10
1.111384
20
-0.765356
0
VERTEX
8
0
10
1.085926
20
-0.772513
0
VERTEX
8
0
10
1.058332
20
-0.775000
0
SEQEND
8
0
0
POLYLINE
8
0
66
1
40
0.008000
41
0.008000
0
VERTEX
8
0
10
0.928332
20
-0.650000
0
VERTEX
8
0
10
0.930207
20
-0.634922
0
VERTEX
8
0
10
0.935832
20
-0.619375
0
VERTEX
8
0
10
0.945207
20
-0.602891
0
VERTEX
8
0
10
0.958332
20
-0.585000
0
SEQEND
8
0
0
POLYLINE
8
0
66
1
40
0.008000
41
0.008000
0
VERTEX
8
0
10
0.928332
20
-0.650000
0
VERTEX
8
0
10
0.929368
20
-0.675558
0
VERTEX
8
0
10
0.935857
20
-0.699194
0
VERTEX
8
0
10
0.947245
20
-0.720450
0
VERTEX
8
0
10
0.962981
20
-0.738867
0
VERTEX
8
0
10
0.982510
20
-0.753989
0
VERTEX
8
0
10
1.005281
20
-0.765356
0
VERTEX
8
0
10
1.030739
20
-0.772513
0
VERTEX
8
0
10
1.058332
20
-0.775000
0
SEQEND
8
0
0
POLYLINE
8
0
66
1
40
0.008000
41
0.008000
0
VERTEX
8
0
10
-1.425000
20
0.650000
0
VERTEX
8
0
10
-1.375000
20
0.650000
0
SEQEND
8
0
0
POLYLINE
8
0
66
1
40
0.008000
41
0.008000
0
VERTEX
8
0
10
-1.375000
20
0.625000
0
VERTEX
8
0
10
-1.175000
20
0.625000
0
VERTEX
8
0
10
-1.175000
20
0.675000
0
VERTEX
8
0
10
-1.375000
20
0.675000
0
VERTEX
8
0
10
-1.375000
20
0.625000
0
SEQEND
8
0
0
POLYLINE
8
0
66
1
40
0.008000
41
0.008000
0
VERTEX
8
0
10
-1.175000
20
0.650000
0
VERTEX
8
0
10
-1.125000
20
0.650000
0
SEQEND
8
0
0
POLYLINE
8
0
66
1
40
0.008000
41
0.008000
0
VERTEX
8
0
10
0.910000
20
0.700000
0
VERTEX
8
0
10
0.910000
20
0.500000
0
SEQEND
8
0
0
POLYLINE
8
0
66
1
40
0.008000
41
0.008000
0
VERTEX
8
0
10
0.975000
20
0.730000
0
VERTEX
8
0
10
0.959922
20
0.728125
0
VERTEX
8
0
10
0.944375
20
0.722500
0
VERTEX
8
0
10
0.927891
20
0.713125
0
VERTEX
8
0
10
0.910000
20
0.700000
0
SEQEND
8
0
0
POLYLINE
8
0
66
1
40
0.008000
41
0.008000
0
VERTEX
8
0
10
0.975000
20
0.730000
0
VERTEX
8
0
10
1.000558
20
0.728964
0
VERTEX
8
0
10
1.024194
20
0.722476
0
VERTEX
8
0
10
1.045450
20
0.711087
0
VERTEX
8
0
10
1.063867
20
0.695352
0
VERTEX
8
0
10
1.078989
20
0.675822
0
VERTEX
8
0
10
1.090356
20
0.653052
0
VERTEX
8
0
10
1.097513
20
0.627593
0
VERTEX
8
0
10
1.100000
20
0.600000
0
SEQEND
8
0
0
POLYLINE
8
0
66
1
40
0.008000
41
0.008000
0
VERTEX
8
0
10
0.975000
20
0.470000
0
VERTEX
8
0
10
0.959922
20
0.471875
0
VERTEX
8
0
10
0.944375
20
0.477500
0
VERTEX
8
0
10
0.927891
20
0.486875
0
VERTEX
8
0
10
0.910000
20
0.500000
0
SEQEND
8
0
0
POLYLINE
8
0
66
1
40
0.008000
41
0.008000
0
VERTEX
8
0
10
0.975000
20
0.470000
0
VERTEX
8
0
10
1.000558
20
0.471036
0
VERTEX
8
0
10
1.024194
20
0.477524
0
VERTEX
8
0
10
1.045450
20
0.488913
0
VERTEX
8
0
10
1.063867
20
0.504648
0
VERTEX
8
0
10
1.078989
20
0.524178
0
VERTEX
8
0
10
1.090356
20
0.546948
0
VERTEX
8
0
10
1.097513
20
0.572407
0
VERTEX
8
0
10
1.100000
20
0.600000
0
SEQEND
8
0
0
POLYLINE
8
0
66
1
40
0.008000
41
0.008000
0
VERTEX
8
0
10
0.910000
20
0.400000
0
VERTEX
8
0
10
0.910000
20
0.200000
0
SEQEND
8
0
0
POLYLINE
8
0
66
1
40
0.008000
41
0.008000
0
VERTEX
8
0
10
0.975000
20
0.430000
0
VERTEX
8
0
10
0.959922
20
0.428125
0
VERTEX
8
0
10
0.944375
20
0.422500
0
VERTEX
8
0
10
0.927891
20
0.413125
0
VERTEX
8
0
10
0.910000
20
0.400000
0
SEQEND
8
0
0
POLYLINE
8
0
66
1
40
0.008000
41
0.008000
0
VERTEX
8
0
10
0.975000
20
0.430000
0
VERTEX
8
0
10
1.000558
20
0.428964
0
VERTEX
8
0
10
1.024194
20
0.422476
0
VERTEX
8
0
10
1.045450
20
0.411087
0
VERTEX
8
0
10
1.063867
20
0.395352
0
VERTEX
8
0
10
1.078989
20
0.375822
0
VERTEX
8
0
10
1.090356
20
0.353052
0
VERTEX
8
0
10
1.097513
20
0.327593
0
VERTEX
8
0
10
1.100000
20
0.300000
0
SEQEND
8
0
0
POLYLINE
8
0
66
1
40
0.008000
41
0.008000
0
VERTEX
8
0
10
0.975000
20
0.170000
0
VERTEX
8
0
10
0.959922
20
0.171875
0
VERTEX
8
0
10
0.944375
20
0.177500
0
VERTEX
8
0
10
0.927891
20
0.186875
0
VERTEX
8
0
10
0.910000
20
0.200000
0
SEQEND
8
0
0
POLYLINE
8
0
66
1
40
0.008000
41
0.008000
0
VERTEX
8
0
10
0.975000
20
0.170000
0
VERTEX
8
0
10
1.000558
20
0.171036
0
VERTEX
8
0
10
1.024194
20
0.177524
0
VERTEX
8
0
10
1.045450
20
0.188913
0
VERTEX
8
0
10
1.063867
20
0.204648
0
VERTEX
8
0
10
1.078989
20
0.224178
0
VERTEX
8
0
10
1.090356
20
0.246948
0
VERTEX
8
0
10
1.097513
20
0.272407
0
VERTEX
8
0
10
1.100000
20
0.300000
0
SEQEND
8
0
0
POLYLINE
8
0
66
1
40
0.008000
41
0.008000
0
VERTEX
8
0
10
0.475000
20
0.600000
0
VERTEX
8
0
10
0.525000
20
0.600000
0
SEQEND
8
0
0
POLYLINE
8
0
66
1
40
0.008000
41
0.008000
0
VERTEX
8
0
10
0.525000
20
0.575000
0
VERTEX
8
0
10
0.725000
20
0.575000
0
VERTEX
8
0
10
0.725000
20
0.625000
0
VERTEX
8
0
10
0.525000
20
0.625000
0
VERTEX
8
0
10
0.525000
20
0.575000
0
SEQEND
8
0
0
POLYLINE
8
0
66
1
40
0.008000
41
0.008000
0
VERTEX
8
0
10
0.725000
20
0.600000
0
VERTEX
8
0
10
0.775000
20
0.600000
0
SEQEND
8
0
0
POLYLINE
8
0
66
1
40
0.008000
41
0.008000
0
VERTEX
8
0
10
0.475000
20
0.300000
0
VERTEX
8
0
10
0.525000
20
0.300000
0
SEQEND
8
0
0
POLYLINE
8
0
66
1
40
0.008000
41
0.008000
0
VERTEX
8
0
10
0.525000
20
0.275000
0
VERTEX
8
0
10
0.725000
20
0.275000
0
VERTEX
8
0
10
0.725000
20
0.325000
0
VERTEX
8
0
10
0.525000
20
0.325000
0
VERTEX
8
0
10
0.525000
20
0.275000
0
SEQEND
8
0
0
POLYLINE
8
0
66
1
40
0.008000
41
0.008000
0
VERTEX
8
0
10
0.725000
20
0.300000
0
VERTEX
8
0
10
0.775000
20
0.300000
0
SEQEND
8
0
0
POLYLINE
8
0
66
1
40
0.008000
41
0.008000
0
VERTEX
8
0
10
1.425000
20
0.700000
0
VERTEX
8
0
10
1.425000
20
0.650000
0
SEQEND
8
0
0
POLYLINE
8
0
66
1
40
0.008000
41
0.008000
0
VERTEX
8
0
10
1.400000
20
0.450000
0
VERTEX
8
0
10
1.450000
20
0.450000
0
VERTEX
8
0
10
1.450000
20
0.650000
0
VERTEX
8
0
10
1.400000
20
0.650000
0
VERTEX
8
0
10
1.400000
20
0.450000
0
SEQEND
8
0
0
POLYLINE
8
0
66
1
40
0.008000
41
0.008000
0
VERTEX
8
0
10
1.425000
20
0.450000
0
VERTEX
8
0
10
1.425000
20
0.400000
0
SEQEND
8
0
0
POLYLINE
8
0
66
1
40
0.008000
41
0.008000
0
VERTEX
8
0
10
1.225000
20
0.700000
0
VERTEX
8
0
10
1.225000
20
0.650000
0
SEQEND
8
0
0
POLYLINE
8
0
66
1
40
0.008000
41
0.008000
0
VERTEX
8
0
10
1.200000
20
0.450000
0
VERTEX
8
0
10
1.250000
20
0.450000
0
VERTEX
8
0
10
1.250000
20
0.650000
0
VERTEX
8
0
10
1.200000
20
0.650000
0
VERTEX
8
0
10
1.200000
20
0.450000
0
SEQEND
8
0
0
POLYLINE
8
0
66
1
40
0.008000
41
0.008000
0
VERTEX
8
0
10
1.225000
20
0.450000
0
VERTEX
8
0
10
1.225000
20
0.400000
0
SEQEND
8
0
0
TEXT
8
0
10
1.475000
20
0.896000
40
0.048000
41
0.833333
1
2-
0
TEXT
8
0
10
0.975000
20
0.896000
40
0.048000
41
0.833333
1
1+
0
POLYLINE
8
0
66
1
40
0.008000
41
0.008000
0
VERTEX
8
0
10
1.310000
20
-0.066668
0
VERTEX
8
0
10
1.310000
20
-0.266668
0
SEQEND
8
0
0
POLYLINE
8
0
66
1
40
0.008000
41
0.008000
0
VERTEX
8
0
10
1.375000
20
-0.036668
0
VERTEX
8
0
10
1.359922
20
-0.038543
0
VERTEX
8
0
10
1.344375
20
-0.044168
0
VERTEX
8
0
10
1.327891
20
-0.053543
0
VERTEX
8
0
10
1.310000
20
-0.066668
0
SEQEND
8
0
0
POLYLINE
8
0
66
1
40
0.008000
41
0.008000
0
VERTEX
8
0
10
1.375000
20
-0.036668
0
VERTEX
8
0
10
1.400558
20
-0.037704
0
VERTEX
8
0
10
1.424194
20
-0.044192
0
VERTEX
8
0
10
1.445450
20
-0.055581
0
VERTEX
8
0
10
1.463867
20
-0.071316
0
VERTEX
8
0
10
1.478989
20
-0.090846
0
VERTEX
8
0
10
1.490356
20
-0.113616
0
VERTEX
8
0
10
1.497513
20
-0.139074
0
VERTEX
8
0
10
1.500000
20
-0.166668
0
SEQEND
8
0
0
POLYLINE
8
0
66
1
40
0.008000
41
0.008000
0
VERTEX
8
0
10
1.375000
20
-0.296668
0
VERTEX
8
0
10
1.359922
20
-0.294793
0
VERTEX
8
0
10
1.344375
20
-0.289168
0
VERTEX
8
0
10
1.327891
20
-0.279793
0
VERTEX
8
0
10
1.310000
20
-0.266668
0
SEQEND
8
0
0
POLYLINE
8
0
66
1
40
0.008000
41
0.008000
0
VERTEX
8
0
10
1.375000
20
-0.296668
0
VERTEX
8
0
10
1.400558
20
-0.295632
0
VERTEX
8
0
10
1.424194
20
-0.289143
0
VERTEX
8
0
10
1.445450
20
-0.277755
0
VERTEX
8
0
10
1.463867
20
-0.262019
0
VERTEX
8
0
10
1.478989
20
-0.242490
0
VERTEX
8
0
10
1.490356
20
-0.219719
0
VERTEX
8
0
10
1.497513
20
-0.194261
0
VERTEX
8
0
10
1.500000
20
-0.166668
0
SEQEND
8
0
0
POLYLINE
8
0
66
1
40
0.008000
41
0.008000
0
VERTEX
8
0
10
1.310000
20
-0.366668
0
VERTEX
8
0
10
1.310000
20
-0.566668
0
SEQEND
8
0
0
POLYLINE
8
0
66
1
40
0.008000
41
0.008000
0
VERTEX
8
0
10
1.375000
20
-0.336668
0
VERTEX
8
0
10
1.359922
20
-0.338543
0
VERTEX
8
0
10
1.344375
20
-0.344168
0
VERTEX
8
0
10
1.327891
20
-0.353543
0
VERTEX
8
0
10
1.310000
20
-0.366668
0
SEQEND
8
0
0
POLYLINE
8
0
66
1
40
0.008000
41
0.008000
0
VERTEX
8
0
10
1.375000
20
-0.336668
0
VERTEX
8
0
10
1.400558
20
-0.337704
0
VERTEX
8
0
10
1.424194
20
-0.344192
0
VERTEX
8
0
10
1.445450
20
-0.355581
0
VERTEX
8
0
10
1.463867
20
-0.371316
0
VERTEX
8
0
10
1.478989
20
-0.390846
0
VERTEX
8
0
10
1.490356
20
-0.413616
0
VERTEX
8
0
10
1.497513
20
-0.439074
0
VERTEX
8
0
10
1.500000
20
-0.466668
0
SEQEND
8
0
0
POLYLINE
8
0
66
1
40
0.008000
41
0.008000
0
VERTEX
8
0
10
1.375000
20
-0.596668
0
VERTEX
8
0
10
1.359922
20
-0.594793
0
VERTEX
8
0
10
1.344375
20
-0.589168
0
VERTEX
8
0
10
1.327891
20
-0.579793
0
VERTEX
8
0
10
1.310000
20
-0.566668
0
SEQEND
8
0
0
POLYLINE
8
0
66
1
40
0.008000
41
0.008000
0
VERTEX
8
0
10
1.375000
20
-0.596668
0
VERTEX
8
0
10
1.400558
20
-0.595632
0
VERTEX
8
0
10
1.424194
20
-0.589143
0
VERTEX
8
0
10
1.445450
20
-0.577755
0
VERTEX
8
0
10
1.463867
20
-0.562019
0
VERTEX
8
0
10
1.478989
20
-0.542490
0
VERTEX
8
0
10
1.490356
20
-0.519719
0
VERTEX
8
0
10
1.497513
20
-0.494261
0
VERTEX
8
0
10
1.500000
20
-0.466668
0
SEQEND
8
0
0
POLYLINE
8
0
66
1
40
0.008000
41
0.008000
0
VERTEX
8
0
10
1.310000
20
0.233332
0
VERTEX
8
0
10
1.310000
20
0.033332
0
SEQEND
8
0
0
POLYLINE
8
0
66
1
40
0.008000
41
0.008000
0
VERTEX
8
0
10
1.375000
20
0.263332
0
VERTEX
8
0
10
1.359922
20
0.261457
0
VERTEX
8
0
10
1.344375
20
0.255832
0
VERTEX
8
0
10
1.327891
20
0.246457
0
VERTEX
8
0
10
1.310000
20
0.233332
0
SEQEND
8
0
0
POLYLINE
8
0
66
1
40
0.008000
41
0.008000
0
VERTEX
8
0
10
1.375000
20
0.263332
0
VERTEX
8
0
10
1.400558
20
0.262296
0
VERTEX
8
0
10
1.424194
20
0.255808
0
VERTEX
8
0
10
1.445450
20
0.244419
0
VERTEX
8
0
10
1.463867
20
0.228684
0
VERTEX
8
0
10
1.478989
20
0.209154
0
VERTEX
8
0
10
1.490356
20
0.186384
0
VERTEX
8
0
10
1.497513
20
0.160926
0
VERTEX
8
0
10
1.500000
20
0.133332
0
SEQEND
8
0
0
POLYLINE
8
0
66
1
40
0.008000
41
0.008000
0
VERTEX
8
0
10
1.375000
20
0.003332
0
VERTEX
8
0
10
1.359922
20
0.005207
0
VERTEX
8
0
10
1.344375
20
0.010832
0
VERTEX
8
0
10
1.327891
20
0.020207
0
VERTEX
8
0
10
1.310000
20
0.033332
0
SEQEND
8
0
0
POLYLINE
8
0
66
1
40
0.008000
41
0.008000
0
VERTEX
8
0
10
1.375000
20
0.003332
0
VERTEX
8
0
10
1.400558
20
0.004368
0
VERTEX
8
0
10
1.424194
20
0.010857
0
VERTEX
8
0
10
1.445450
20
0.022245
0
VERTEX
8
0
10
1.463867
20
0.037981
0
VERTEX
8
0
10
1.478989
20
0.057510
0
VERTEX
8
0
10
1.490356
20
0.080281
0
VERTEX
8
0
10
1.497513
20
0.105739
0
VERTEX
8
0
10
1.500000
20
0.133332
0
SEQEND
8
0
0
POLYLINE
8
0
66
1
40
0.008000
41
0.008000
0
VERTEX
8
0
10
0.625000
20
0.050000
0
VERTEX
8
0
10
0.675000
20
0.050000
0
SEQEND
8
0
0
POLYLINE
8
0
66
1
40
0.008000
41
0.008000
0
VERTEX
8
0
10
0.675000
20
0.025000
0
VERTEX
8
0
10
0.875000
20
0.025000
0
VERTEX
8
0
10
0.875000
20
0.075000
0
VERTEX
8
0
10
0.675000
20
0.075000
0
VERTEX
8
0
10
0.675000
20
0.025000
0
SEQEND
8
0
0
POLYLINE
8
0
66
1
40
0.008000
41
0.008000
0
VERTEX
8
0
10
0.875000
20
0.050000
0
VERTEX
8
0
10
0.925000
20
0.050000
0
SEQEND
8
0
0
POLYLINE
8
0
66
1
40
0.008000
41
0.008000
0
VERTEX
8
0
10
0.625000
20
-0.100000
0
VERTEX
8
0
10
0.675000
20
-0.100000
0
SEQEND
8
0
0
POLYLINE
8
0
66
1
40
0.008000
41
0.008000
0
VERTEX
8
0
10
0.675000
20
-0.125000
0
VERTEX
8
0
10
0.875000
20
-0.125000
0
VERTEX
8
0
10
0.875000
20
-0.075000
0
VERTEX
8
0
10
0.675000
20
-0.075000
0
VERTEX
8
0
10
0.675000
20
-0.125000
0
SEQEND
8
0
0
POLYLINE
8
0
66
1
40
0.008000
41
0.008000
0
VERTEX
8
0
10
0.875000
20
-0.100000
0
VERTEX
8
0
10
0.925000
20
-0.100000
0
SEQEND
8
0
0
POLYLINE
8
0
66
1
40
0.008000
41
0.008000
0
VERTEX
8
0
10
0.625000
20
-0.250000
0
VERTEX
8
0
10
0.675000
20
-0.250000
0
SEQEND
8
0
0
POLYLINE
8
0
66
1
40
0.008000
41
0.008000
0
VERTEX
8
0
10
0.675000
20
-0.275000
0
VERTEX
8
0
10
0.875000
20
-0.275000
0
VERTEX
8
0
10
0.875000
20
-0.225000
0
VERTEX
8
0
10
0.675000
20
-0.225000
0
VERTEX
8
0
10
0.675000
20
-0.275000
0
SEQEND
8
0
0
POLYLINE
8
0
66
1
40
0.008000
41
0.008000
0
VERTEX
8
0
10
0.875000
20
-0.250000
0
VERTEX
8
0
10
0.925000
20
-0.250000
0
SEQEND
8
0
0
POLYLINE
8
0
66
1
40
0.008000
41
0.008000
0
VERTEX
8
0
10
0.625000
20
-0.400000
0
VERTEX
8
0
10
0.675000
20
-0.400000
0
SEQEND
8
0
0
POLYLINE
8
0
66
1
40
0.008000
41
0.008000
0
VERTEX
8
0
10
0.675000
20
-0.425000
0
VERTEX
8
0
10
0.875000
20
-0.425000
0
VERTEX
8
0
10
0.875000
20
-0.375000
0
VERTEX
8
0
10
0.675000
20
-0.375000
0
VERTEX
8
0
10
0.675000
20
-0.425000
0
SEQEND
8
0
0
POLYLINE
8
0
66
1
40
0.008000
41
0.008000
0
VERTEX
8
0
10
0.875000
20
-0.400000
0
VERTEX
8
0
10
0.925000
20
-0.400000
0
SEQEND
8
0
0
TEXT
8
0
10
1.525000
20
0.210000
40
0.080000
41
1.000000
1
-
0
TEXT
8
0
10
1.775000
20
0.210000
40
0.080000
41
1.000000
1
+
0
POLYLINE
8
0
66
1
40
0.008000
41
0.008000
0
VERTEX
8
0
10
-0.475000
20
-0.400000
0
VERTEX
8
0
10
-0.425000
20
-0.400000
0
SEQEND
8
0
0
POLYLINE
8
0
66
1
40
0.008000
41
0.008000
0
VERTEX
8
0
10
-0.425000
20
-0.425000
0
VERTEX
8
0
10
-0.225000
20
-0.425000
0
VERTEX
8
0
10
-0.225000
20
-0.375000
0
VERTEX
8
0
10
-0.425000
20
-0.375000
0
VERTEX
8
0
10
-0.425000
20
-0.425000
0
SEQEND
8
0
0
POLYLINE
8
0
66
1
40
0.008000
41
0.008000
0
VERTEX
8
0
10
-0.225000
20
-0.400000
0
VERTEX
8
0
10
-0.175000
20
-0.400000
0
SEQEND
8
0
0
POLYLINE
8
0
66
1
40
0.008000
41
0.008000
0
VERTEX
8
0
10
-0.475000
20
-0.550000
0
VERTEX
8
0
10
-0.425000
20
-0.550000
0
SEQEND
8
0
0
POLYLINE
8
0
66
1
40
0.008000
41
0.008000
0
VERTEX
8
0
10
-0.425000
20
-0.575000
0
VERTEX
8
0
10
-0.225000
20
-0.575000
0
VERTEX
8
0
10
-0.225000
20
-0.525000
0
VERTEX
8
0
10
-0.425000
20
-0.525000
0
VERTEX
8
0
10
-0.425000
20
-0.575000
0
SEQEND
8
0
0
POLYLINE
8
0
66
1
40
0.008000
41
0.008000
0
VERTEX
8
0
10
-0.225000
20
-0.550000
0
VERTEX
8
0
10
-0.175000
20
-0.550000
0
SEQEND
8
0
0
POLYLINE
8
0
66
1
40
0.008000
41
0.008000
0
VERTEX
8
0
10
-0.475000
20
-0.700000
0
VERTEX
8
0
10
-0.425000
20
-0.700000
0
SEQEND
8
0
0
POLYLINE
8
0
66
1
40
0.008000
41
0.008000
0
VERTEX
8
0
10
-0.425000
20
-0.725000
0
VERTEX
8
0
10
-0.225000
20
-0.725000
0
VERTEX
8
0
10
-0.225000
20
-0.675000
0
VERTEX
8
0
10
-0.425000
20
-0.675000
0
VERTEX
8
0
10
-0.425000
20
-0.725000
0
SEQEND
8
0
0
POLYLINE
8
0
66
1
40
0.008000
41
0.008000
0
VERTEX
8
0
10
-0.225000
20
-0.700000
0
VERTEX
8
0
10
-0.175000
20
-0.700000
0
SEQEND
8
0
0
TEXT
8
0
10
-1.025000
20
-0.413000
40
0.056000
41
0.892857
1
L
0
TEXT
8
0
10
-1.025000
20
-0.563000
40
0.056000
41
0.892857
1
R
0
TEXT
8
0
10
-1.075000
20
-0.713000
40
0.056000
41
0.892857
1
OK
0
CIRCLE
8
0
10
-0.375000
20
0.170472
40
0.078740
0
POLYLINE
8
0
66
1
40
0.008000
41
0.008000
0
VERTEX
8
0
10
-0.175000
20
0.250000
0
VERTEX
8
0
10
-0.164813
20
0.247041
0
VERTEX
8
0
10
-0.155375
20
0.238516
0
VERTEX
8
0
10
-0.146875
20
0.224951
0
VERTEX
8
0
10
-0.139500
20
0.206875
0
VERTEX
8
0
10
-0.133437
20
0.184815
0
VERTEX
8
0
10
-0.128875
20
0.159297
0
VERTEX
8
0
10
-0.126000
20
0.130850
0
VERTEX
8
0
10
-0.125000
20
0.100000
0
SEQEND
8
0
0
POLYLINE
8
0
66
1
40
0.008000
41
0.008000
0
VERTEX
8
0
10
-0.175000
20
-0.050000
0
VERTEX
8
0
10
-0.164813
20
-0.047000
0
VERTEX
8
0
10
-0.155375
20
-0.038375
0
VERTEX
8
0
10
-0.146875
20
-0.024687
0
VERTEX
8
0
10
-0.139500
20
-0.006500
0
VERTEX
8
0
10
-0.133437
20
0.015625
0
VERTEX
8
0
10
-0.128875
20
0.041125
0
VERTEX
8
0
10
-0.126000
20
0.069437
0
VERTEX
8
0
10
-0.125000
20
0.100000
0
SEQEND
8
0
0
POLYLINE
8
0
66
1
40
0.008000
41
0.008000
0
VERTEX
8
0
10
-0.175000
20
-0.050000
0
VERTEX
8
0
10
-0.185187
20
-0.047000
0
VERTEX
8
0
10
-0.194625
20
-0.038375
0
VERTEX
8
0
10
-0.203125
20
-0.024687
0
VERTEX
8
0
10
-0.210500
20
-0.006500
0
VERTEX
8
0
10
-0.216563
20
0.015625
0
VERTEX
8
0
10
-0.221125
20
0.041125
0
VERTEX
8
0
10
-0.224000
20
0.069437
0
VERTEX
8
0
10
-0.225000
20
0.100000
0
SEQEND
8
0
0
POLYLINE
8
0
66
1
40
0.008000
41
0.008000
0
VERTEX
8
0
10
-0.175000
20
0.250000
0
VERTEX
8
0
10
-0.185187
20
0.247041
0
VERTEX
8
0
10
-0.194625
20
0.238516
0
VERTEX
8
0
10
-0.203125
20
0.224951
0
VERTEX
8
0
10
-0.210500
20
0.206875
0
VERTEX
8
0
10
-0.216563
20
0.184815
0
VERTEX
8
0
10
-0.221125
20
0.159297
0
VERTEX
8
0
10
-0.224000
20
0.130850
0
VERTEX
8
0
10
-0.225000
20
0.100000
0
SEQEND
8
0
0
TEXT
8
0
10
1.588000
20
0.400000
40
0.056000
41
0.714286
50
90.000000
1
5V
0
TEXT
8
0
10
1.788000
20
0.400000
40
0.056000
41
0.892857
50
90.000000
1
Custom
0
TEXT
8
0
10
-1.485000
20
0.700000
40
0.080000
41
0.750000
50
90.000000
1
-
0
TEXT
8
0
10
-1.435000
20
0.950000
40
0.080000
41
0.750000
50
90.000000
1
+
0
POLYLINE
8
0
66
1
40
0.020000
41
0.020000
0
VERTEX
8
0
10
-1.075000
20
0.650000
0
VERTEX
8
0
10
-0.875000
20
0.650000
0
VERTEX
8
0
10
-0.625000
20
0.900000
0
SEQEND
8
0
0
POLYLINE
8
0
66
1
40
0.020000
41
0.020000
0
VERTEX
8
0
10
-0.025000
20
-0.350000
0
VERTEX
8
0
10
-0.525000
20
0.150000
0
VERTEX
8
0
10
-0.525000
20
0.900000
0
SEQEND
8
0
0
POLYLINE
8
0
66
1
40
0.020000
41
0.020000
0
VERTEX
8
0
10
-0.825000
20
0.900000
0
VERTEX
8
0
10
-0.925000
20
0.800000
0
SEQEND
8
0
0
POLYLINE
8
0
66
1
40
0.020000
41
0.020000
0
VERTEX
8
0
10
-0.025000
20
0.350000
0
VERTEX
8
0
10
-0.225000
20
0.550000
0
VERTEX
8
0
10
-0.225000
20
0.900000
0
SEQEND
8
0
0
POLYLINE
8
0
66
1
40
0.020000
41
0.020000
0
VERTEX
8
0
10
-0.125000
20
0.900000
0
VERTEX
8
0
10
-0.125000
20
0.550000
0
VERTEX
8
0
10
-0.025000
20
0.450000
0
SEQEND
8
0
0
POLYLINE
8
0
66
1
40
0.020000
41
0.020000
0
VERTEX
8
0
10
-0.025000
20
0.550000
0
VERTEX
8
0
10
-0.075000
20
0.600000
0
VERTEX
8
0
10
-0.075000
20
0.900000
0
VERTEX
8
0
10
-0.025000
20
0.900000
0
SEQEND
8
0
0
POLYLINE
8
0
66
1
40
0.020000
41
0.020000
0
VERTEX
8
0
10
0.075000
20
0.900000
0
VERTEX
8
0
10
0.075000
20
0.750000
0
VERTEX
8
0
10
-0.025000
20
0.650000
0
SEQEND
8
0
0
POLYLINE
8
0
66
1
40
0.020000
41
0.020000
0
VERTEX
8
0
10
0.175000
20
0.900000
0
VERTEX
8
0
10
0.175000
20
0.950000
0
VERTEX
8
0
10
-0.775000
20
0.950000
0
SEQEND
8
0
0
POLYLINE
8
0
66
1
40
0.020000
41
0.020000
0
VERTEX
8
0
10
-0.725000
20
0.900000
0
VERTEX
8
0
10
-0.775000
20
0.950000
0
VERTEX
8
0
10
-0.794770
20
0.969770
0
VERTEX
8
0
10
-1.402513
20
0.969770
0
VERTEX
8
0
10
-1.405230
20
0.969770
0
SEQEND
8
0
0
POLYLINE
8
0
66
1
40
0.020000
41
0.020000
0
VERTEX
8
0
10
0.825000
20
0.600000
0
VERTEX
8
0
10
0.975000
20
0.600000
0
SEQEND
8
0
0
POLYLINE
8
0
66
1
40
0.020000
41
0.020000
0
VERTEX
8
0
10
0.425000
20
0.600000
0
VERTEX
8
0
10
0.275787
20
0.749213
0
VERTEX
8
0
10
0.275000
20
0.749213
0
SEQEND
8
0
0
POLYLINE
8
0
66
1
40
0.020000
41
0.020000
0
VERTEX
8
0
10
0.275000
20
0.650000
0
VERTEX
8
0
10
0.425000
20
0.500000
0
VERTEX
8
0
10
0.425000
20
0.300000
0
SEQEND
8
0
0
POLYLINE
8
0
66
1
40
0.020000
41
0.020000
0
VERTEX
8
0
10
0.825000
20
0.300000
0
VERTEX
8
0
10
0.975000
20
0.300000
0
SEQEND
8
0
0
POLYLINE
8
0
66
1
40
0.020000
41
0.020000
0
VERTEX
8
0
10
1.425000
20
0.900000
0
VERTEX
8
0
10
1.425000
20
0.750000
0
SEQEND
8
0
0
POLYLINE
8
0
66
1
40
0.020000
41
0.020000
0
VERTEX
8
0
10
-1.475000
20
0.900000
0
VERTEX
8
0
10
-1.405230
20
0.969770
0
VERTEX
8
0
10
-1.325000
20
1.050000
0
VERTEX
8
0
10
1.125000
20
1.050000
0
VERTEX
8
0
10
1.125000
20
0.900000
0
SEQEND
8
0
0
POLYLINE
8
0
66
1
40
0.020000
41
0.020000
0
VERTEX
8
0
10
1.425000
20
0.350000
0
VERTEX
8
0
10
1.225000
20
0.350000
0
VERTEX
8
0
10
1.095000
20
0.220000
0
VERTEX
8
0
10
0.975000
20
0.220000
0
SEQEND
8
0
0
POLYLINE
8
0
66
1
40
0.020000
41
0.020000
0
VERTEX
8
0
10
0.975000
20
0.520000
0
VERTEX
8
0
10
1.145000
20
0.350000
0
VERTEX
8
0
10
1.225000
20
0.350000
0
SEQEND
8
0
0
POLYLINE
8
0
66
1
40
0.020000
41
0.020000
0
VERTEX
8
0
10
1.225000
20
0.850000
0
VERTEX
8
0
10
1.145000
20
0.850000
0
VERTEX
8
0
10
0.975000
20
0.680000
0
SEQEND
8
0
0
POLYLINE
8
0
66
1
40
0.020000
41
0.020000
0
VERTEX
8
0
10
1.225000
20
0.900000
0
VERTEX
8
0
10
1.225000
20
0.850000
0
VERTEX
8
0
10
1.225000
20
0.750000
0
SEQEND
8
0
0
POLYLINE
8
0
66
1
40
0.020000
41
0.020000
0
VERTEX
8
0
10
-0.125000
20
-0.400000
0
VERTEX
8
0
10
-0.225000
20
-0.400000
0
SEQEND
8
0
0
POLYLINE
8
0
66
1
40
0.020000
41
0.020000
0
VERTEX
8
0
10
-1.475000
20
0.650000
0
VERTEX
8
0
10
-0.725000
20
-0.100000
0
VERTEX
8
0
10
-0.375000
20
-0.100000
0
VERTEX
8
0
10
-0.225000
20
-0.250000
0
VERTEX
8
0
10
-0.225000
20
-0.400000
0
SEQEND
8
0
0
POLYLINE
8
0
66
1
40
0.020000
41
0.020000
0
VERTEX
8
0
10
-0.225000
20
-0.550000
0
VERTEX
8
0
10
-0.125000
20
-0.550000
0
SEQEND
8
0
0
POLYLINE
8
0
66
1
40
0.020000
41
0.020000
0
VERTEX
8
0
10
-0.225000
20
-0.400000
0
VERTEX
8
0
10
-0.225000
20
-0.550000
0
SEQEND
8
0
0
POLYLINE
8
0
66
1
40
0.020000
41
0.020000
0
VERTEX
8
0
10
-0.125000
20
-0.700000
0
VERTEX
8
0
10
-0.225000
20
-0.700000
0
SEQEND
8
0
0
POLYLINE
8
0
66
1
40
0.020000
41
0.020000
0
VERTEX
8
0
10
-0.225000
20
-0.550000
0
VERTEX
8
0
10
-0.225000
20
-0.700000
0
SEQEND
8
0
0
POLYLINE
8
0
66
1
40
0.020000
41
0.020000
0
VERTEX
8
0
10
-0.825000
20
-0.100000
0
VERTEX
8
0
10
-0.825000
20
-0.400000
0
VERTEX
8
0
10
-0.825000
20
-0.550000
0
VERTEX
8
0
10
-0.825000
20
-0.700000
0
SEQEND
8
0
0
POLYLINE
8
0
66
1
40
0.020000
41
0.020000
0
VERTEX
8
0
10
-0.675000
20
-0.400000
0
VERTEX
8
0
10
-0.525000
20
-0.400000
0
SEQEND
8
0
0
POLYLINE
8
0
66
1
40
0.020000
41
0.020000
0
VERTEX
8
0
10
-0.675000
20
-0.550000
0
VERTEX
8
0
10
-0.525000
20
-0.550000
0
SEQEND
8
0
0
POLYLINE
8
0
66
1
40
0.020000
41
0.020000
0
VERTEX
8
0
10
-0.675000
20
-0.700000
0
VERTEX
8
0
10
-0.575000
20
-0.700000
0
VERTEX
8
0
10
-0.525000
20
-0.700000
0
SEQEND
8
0
0
POLYLINE
8
0
66
1
40
0.020000
41
0.020000
0
VERTEX
8
0
10
-1.475000
20
0.800000
0
VERTEX
8
0
10
-1.475000
20
0.650000
0
SEQEND
8
0
0
POLYLINE
8
0
66
1
40
0.020000
41
0.020000
0
VERTEX
8
0
10
-0.925000
20
0.800000
0
VERTEX
8
0
10
-1.475000
20
0.800000
0
SEQEND
8
0
0
POLYLINE
8
0
66
1
40
0.020000
41
0.020000
0
VERTEX
8
0
10
-0.825000
20
-0.100000
0
VERTEX
8
0
10
-1.475000
20
0.550000
0
VERTEX
8
0
10
-1.525000
20
0.550000
0
VERTEX
8
0
10
-1.575000
20
0.600000
0
VERTEX
8
0
10
-1.575000
20
0.900000
0
SEQEND
8
0
0
POLYLINE
8
0
66
1
40
0.020000
41
0.020000
0
VERTEX
8
0
10
-1.475000
20
0.900000
0
VERTEX
8
0
10
-1.575000
20
0.900000
0
SEQEND
8
0
0
POLYLINE
8
0
66
1
40
0.020000
41
0.020000
0
VERTEX
8
0
10
0.275000
20
-0.250000
0
VERTEX
8
0
10
0.375000
20
-0.250000
0
SEQEND
8
0
0
POLYLINE
8
0
66
1
40
0.020000
41
0.020000
0
VERTEX
8
0
10
0.275000
20
-0.150000
0
VERTEX
8
0
10
0.375000
20
-0.150000
0
SEQEND
8
0
0
POLYLINE
8
0
66
1
40
0.020000
41
0.020000
0
VERTEX
8
0
10
0.275000
20
0.350000
0
VERTEX
8
0
10
0.475000
20
0.150000
0
VERTEX
8
0
10
0.475000
20
0.000000
0
VERTEX
8
0
10
0.575000
20
-0.100000
0
SEQEND
8
0
0
POLYLINE
8
0
66
1
40
0.020000
41
0.020000
0
VERTEX
8
0
10
0.275000
20
0.250000
0
VERTEX
8
0
10
0.425000
20
0.100000
0
VERTEX
8
0
10
0.425000
20
0.000000
0
VERTEX
8
0
10
0.425000
20
-0.100000
0
VERTEX
8
0
10
0.575000
20
-0.250000
0
SEQEND
8
0
0
POLYLINE
8
0
66
1
40
0.020000
41
0.020000
0
VERTEX
8
0
10
0.975000
20
0.050000
0
VERTEX
8
0
10
1.291668
20
0.050000
0
VERTEX
8
0
10
1.375000
20
0.133332
0
SEQEND
8
0
0
POLYLINE
8
0
66
1
40
0.020000
41
0.020000
0
VERTEX
8
0
10
0.975000
20
-0.100000
0
VERTEX
8
0
10
1.308332
20
-0.100000
0
VERTEX
8
0
10
1.375000
20
-0.166668
0
SEQEND
8
0
0
POLYLINE
8
0
66
1
40
0.020000
41
0.020000
0
VERTEX
8
0
10
0.975000
20
-0.250000
0
VERTEX
8
0
10
1.158332
20
-0.250000
0
VERTEX
8
0
10
1.375000
20
-0.466668
0
SEQEND
8
0
0
POLYLINE
8
0
66
1
40
0.020000
41
0.020000
0
VERTEX
8
0
10
1.625000
20
0.150000
0
VERTEX
8
0
10
1.438332
20
0.150000
0
VERTEX
8
0
10
1.375000
20
0.213332
0
SEQEND
8
0
0
POLYLINE
8
0
66
1
40
0.020000
41
0.020000
0
VERTEX
8
0
10
1.625000
20
-0.150000
0
VERTEX
8
0
10
1.438332
20
-0.150000
0
VERTEX
8
0
10
1.375000
20
-0.086668
0
SEQEND
8
0
0
POLYLINE
8
0
66
1
40
0.020000
41
0.020000
0
VERTEX
8
0
10
1.625000
20
-0.450000
0
VERTEX
8
0
10
1.438332
20
-0.450000
0
VERTEX
8
0
10
1.375000
20
-0.386668
0
SEQEND
8
0
0
POLYLINE
8
0
66
1
40
0.020000
41
0.020000
0
VERTEX
8
0
10
1.058332
20
-0.650000
0
VERTEX
8
0
10
1.058332
20
-0.483332
0
VERTEX
8
0
10
0.975000
20
-0.400000
0
SEQEND
8
0
0
POLYLINE
8
0
66
1
40
0.020000
41
0.020000
0
VERTEX
8
0
10
0.575000
20
-0.400000
0
VERTEX
8
0
10
0.325000
20
-0.400000
0
VERTEX
8
0
10
0.275000
20
-0.350000
0
VERTEX
8
0
10
0.375000
20
-0.350000
0
SEQEND
8
0
0
POLYLINE
8
0
66
1
40
0.020000
41
0.020000
0
VERTEX
8
0
10
-0.125000
20
-0.700000
0
VERTEX
8
0
10
0.928332
20
-0.700000
0
VERTEX
8
0
10
0.978332
20
-0.650000
0
SEQEND
8
0
0
POLYLINE
8
0
66
1
40
0.020000
41
0.020000
0
VERTEX
8
0
10
1.125000
20
1.050000
0
VERTEX
8
0
10
1.325000
20
1.050000
0
VERTEX
8
0
10
1.325000
20
0.900000
0
SEQEND
8
0
0
POLYLINE
8
0
66
1
40
0.020000
41
0.020000
0
VERTEX
8
0
10
1.725000
20
-0.150000
0
VERTEX
8
0
10
1.725000
20
-0.450000
0
SEQEND
8
0
0
POLYLINE
8
0
66
1
40
0.020000
41
0.020000
0
VERTEX
8
0
10
1.725000
20
0.350000
0
VERTEX
8
0
10
1.725000
20
0.150000
0
VERTEX
8
0
10
1.725000
20
-0.150000
0
SEQEND
8
0
0
POLYLINE
8
0
66
1
40
0.020000
41
0.020000
0
VERTEX
8
0
10
1.325000
20
1.050000
0
VERTEX
8
0
10
1.625000
20
1.050000
0
VERTEX
8
0
10
1.625000
20
0.350000
0
SEQEND
8
0
0
POLYLINE
8
0
66
1
40
0.020000
41
0.020000
0
VERTEX
8
0
10
1.825000
20
0.350000
0
VERTEX
8
0
10
1.825000
20
0.450000
0
SEQEND
8
0
0
POLYLINE
8
0
66
1
40
0.020000
41
0.020000
0
VERTEX
8
0
10
-0.425000
20
0.900000
0
VERTEX
8
0
10
-0.525000
20
0.800000
0
VERTEX
8
0
10
-0.925000
20
0.800000
0
SEQEND
8
0
0
POLYLINE
8
0
66
1
40
0.020000
41
0.020000
0
VERTEX
8
0
10
-0.325000
20
0.900000
0
VERTEX
8
0
10
-0.225000
20
0.800000
0
VERTEX
8
0
10
0.075000
20
0.800000
0
VERTEX
8
0
10
0.075000
20
-0.450000
0
VERTEX
8
0
10
-0.025000
20
-0.450000
0
SEQEND
8
0
0
POLYLINE
8
0
66
1
40
0.020000
41
0.020000
0
VERTEX
8
0
10
1.425000
20
0.750000
0
VERTEX
8
0
10
1.055000
20
0.380000
0
VERTEX
8
0
10
0.975000
20
0.380000
0
SEQEND
8
0
0
POLYLINE
8
0
66
1
40
0.010000
41
0.010000
0
VERTEX
8
0
10
-0.025000
20
-0.550000
0
VERTEX
8
0
10
-0.125000
20
-0.650000
0
VERTEX
8
0
10
-0.625000
20
-0.650000
0
VERTEX
8
0
10
-0.675000
20
-0.700000
0
SEQEND
8
0
0
POLYLINE
8
0
66
1
40
0.010000
41
0.010000
0
VERTEX
8
0
10
0.275000
20
-0.450000
0
VERTEX
8
0
10
0.125000
20
-0.450000
0
VERTEX
8
0
10
0.075000
20
-0.500000
0
VERTEX
8
0
10
-0.575000
20
-0.500000
0
VERTEX
8
0
10
-0.675000
20
-0.400000
0
SEQEND
8
0
0
POLYLINE
8
0
66
1
40
0.010000
41
0.010000
0
VERTEX
8
0
10
0.275000
20
-0.550000
0
VERTEX
8
0
10
0.125000
20
-0.550000
0
VERTEX
8
0
10
-0.125000
20
-0.800000
0
VERTEX
8
0
10
-0.675000
20
-0.800000
0
VERTEX
8
0
10
-0.725000
20
-0.750000
0
VERTEX
8
0
10
-0.725000
20
-0.600000
0
VERTEX
8
0
10
-0.675000
20
-0.550000
0
SEQEND
8
0
0
POLYLINE
8
0
66
1
40
0.020000
41
0.020000
0
VERTEX
8
0
10
-0.025000
20
0.750000
0
VERTEX
8
0
10
-0.175000
20
0.750000
0
SEQEND
8
0
0
POLYLINE
8
0
66
1
40
0.020000
41
0.020000
0
VERTEX
8
0
10
0.275000
20
0.450000
0
VERTEX
8
0
10
0.350590
20
0.374410
0
VERTEX
8
0
10
0.350590
20
0.347137
0
VERTEX
8
0
10
0.350590
20
0.274410
0
VERTEX
8
0
10
0.575000
20
0.050000
0
SEQEND
8
0
0
POLYLINE
8
0
66
1
40
0.020000
41
0.020000
0
VERTEX
8
0
10
1.375000
20
-0.546668
0
VERTEX
8
0
10
1.521668
20
-0.546668
0
VERTEX
8
0
10
1.525000
20
-0.550000
0
VERTEX
8
0
10
1.375000
20
-0.700000
0
VERTEX
8
0
10
1.188332
20
-0.700000
0
VERTEX
8
0
10
1.138332
20
-0.650000
0
SEQEND
8
0
0
POLYLINE
8
0
66
1
40
0.020000
41
0.020000
0
VERTEX
8
0
10
1.375000
20
-0.246668
0
VERTEX
8
0
10
1.521668
20
-0.246668
0
VERTEX
8
0
10
1.525000
20
-0.250000
0
SEQEND
8
0
0
POLYLINE
8
0
66
1
40
0.020000
41
0.020000
0
VERTEX
8
0
10
1.375000
20
0.053332
0
VERTEX
8
0
10
1.521668
20
0.053332
0
VERTEX
8
0
10
1.525000
20
0.050000
0
VERTEX
8
0
10
1.525000
20
-0.250000
0
VERTEX
8
0
10
1.525000
20
-0.550000
0
SEQEND
8
0
0
POLYLINE
8
0
66
1
40
0.020000
41
0.020000
0
VERTEX
8
0
10
-0.025000
20
0.150000
0
VERTEX
8
0
10
-0.075000
20
0.200000
0
VERTEX
8
0
10
-0.175000
20
0.200000
0
VERTEX
8
0
10
-0.375000
20
0.200000
0
SEQEND
8
0
0
POLYLINE
8
0
66
1
40
0.020000
41
0.020000
0
VERTEX
8
0
10
-0.025000
20
0.050000
0
VERTEX
8
0
10
-0.125000
20
0.050000
0
VERTEX
8
0
10
-0.175000
20
0.000000
0
VERTEX
8
0
10
-0.234055
20
0.000000
0
VERTEX
8
0
10
-0.375000
20
0.140945
0
VERTEX
8
0
10
-0.784055
20
0.550000
0
VERTEX
8
0
10
-1.075000
20
0.550000
0
VERTEX
8
0
10
-1.125000
20
0.600000
0
VERTEX
8
0
10
-1.275000
20
0.600000
0
VERTEX
8
0
10
-1.475000
20
0.800000
0
SEQEND
8
0
0
POLYLINE
8
0
66
1
40
0.020000
41
0.020000
0
VERTEX
8
0
10
0.275000
20
0.900000
0
VERTEX
8
0
10
0.275000
20
0.950000
0
VERTEX
8
0
10
-0.875000
20
0.950000
0
VERTEX
8
0
10
-0.925000
20
0.900000
0
VERTEX
8
0
10
-0.925000
20
0.800000
0
SEQEND
8
0
0
POLYLINE
8
0
66
1
40
0.020000
41
0.020000
0
VERTEX
8
0
10
-0.375000
20
0.200000
0
VERTEX
8
0
10
-0.925000
20
0.750000
0
VERTEX
8
0
10
-0.975000
20
0.750000
0
VERTEX
8
0
10
-1.325000
20
0.750000
0
VERTEX
8
0
10
-1.475000
20
0.900000
0
SEQEND
8
0
0
INSERT
8
0
2
EPAD
10
-0.175000
20
0.750000
41
0.030000
42
0.030000
0
CIRCLE
8
0
10
-0.175000
20
0.750000
40
0.010000
0
INSERT
8
0
2
EPAD
10
0.375000
20
-0.250000
41
0.030000
42
0.030000
0
CIRCLE
8
0
10
0.375000
20
-0.250000
40
0.010000
0
INSERT
8
0
2
EPAD
10
0.375000
20
-0.150000
41
0.030000
42
0.030000
0
CIRCLE
8
0
10
0.375000
20
-0.150000
40
0.010000
0
INSERT
8
0
2
EPAD
10
0.375000
20
-0.350000
41
0.030000
42
0.030000
0
CIRCLE
8
0
10
0.375000
20
-0.350000
40
0.010000
0
INSERT
8
0
2
EPAD
10
-0.925000
20
0.800000
41
0.030000
42
0.030000
0
CIRCLE
8
0
10
-0.925000
20
0.800000
40
0.010000
0
INSERT
8
0
2
RPAD
10
-0.025000
20
0.750000
41
0.050000
42
0.050000
50
0.000000
0
CIRCLE
8
0
10
-0.025000
20
0.750000
40
0.010000
0
INSERT
8
0
2
EPAD
10
-0.025000
20
0.650000
41
0.050000
42
0.050000
0
CIRCLE
8
0
10
-0.025000
20
0.650000
40
0.010000
0
INSERT
8
0
2
EPAD
10
-0.025000
20
0.550000
41
0.050000
42
0.050000
0
CIRCLE
8
0
10
-0.025000
20
0.550000
40
0.010000
0
INSERT
8
0
2
EPAD
10
-0.025000
20
0.450000
41
0.050000
42
0.050000
0
CIRCLE
8
0
10
-0.025000
20
0.450000
40
0.010000
0
INSERT
8
0
2
EPAD
10
-0.025000
20
0.350000
41
0.050000
42
0.050000
0
CIRCLE
8
0
10
-0.025000
20
0.350000
40
0.010000
0
INSERT
8
0
2
EPAD
10
-0.025000
20
0.250000
41
0.050000
42
0.050000
0
CIRCLE
8
0
10
-0.025000
20
0.250000
40
0.010000
0
INSERT
8
0
2
EPAD
10
-0.025000
20
0.150000
41
0.050000
42
0.050000
0
CIRCLE
8
0
10
-0.025000
20
0.150000
40
0.010000
0
INSERT
8
0
2
EPAD
10
-0.025000
20
0.050000
41
0.050000
42
0.050000
0
CIRCLE
8
0
10
-0.025000
20
0.050000
40
0.010000
0
INSERT
8
0
2
EPAD
10
-0.025000
20
-0.050000
41
0.050000
42
0.050000
0
CIRCLE
8
0
10
-0.025000
20
-0.050000
40
0.010000
0
INSERT
8
0
2
EPAD
10
-0.025000
20
-0.150000
41
0.050000
42
0.050000
0
CIRCLE
8
0
10
-0.025000
20
-0.150000
40
0.010000
0
INSERT
8
0
2
EPAD
10
-0.025000
20
-0.250000
41
0.050000
42
0.050000
0
CIRCLE
8
0
10
-0.025000
20
-0.250000
40
0.010000
0
INSERT
8
0
2
EPAD
10
-0.025000
20
-0.350000
41
0.050000
42
0.050000
0
CIRCLE
8
0
10
-0.025000
20
-0.350000
40
0.010000
0
INSERT
8
0
2
EPAD
10
-0.025000
20
-0.450000
41
0.050000
42
0.050000
0
CIRCLE
8
0
10
-0.025000
20
-0.450000
40
0.010000
0
INSERT
8
0
2
EPAD
10
-0.025000
20
-0.550000
41
0.050000
42
0.050000
0
CIRCLE
8
0
10
-0.025000
20
-0.550000
40
0.010000
0
INSERT
8
0
2
EPAD
10
0.275000
20
-0.550000
41
0.050000
42
0.050000
0
CIRCLE
8
0
10
0.275000
20
-0.550000
40
0.010000
0
INSERT
8
0
2
EPAD
10
0.275000
20
-0.450000
41
0.050000
42
0.050000
0
CIRCLE
8
0
10
0.275000
20
-0.450000
40
0.010000
0
INSERT
8
0
2
EPAD
10
0.275000
20
-0.350000
41
0.050000
42
0.050000
0
CIRCLE
8
0
10
0.275000
20
-0.350000
40
0.010000
0
INSERT
8
0
2
EPAD
10
0.275000
20
-0.250000
41
0.050000
42
0.050000
0
CIRCLE
8
0
10
0.275000
20
-0.250000
40
0.010000
0
INSERT
8
0
2
EPAD
10
0.275000
20
-0.150000
41
0.050000
42
0.050000
0
CIRCLE
8
0
10
0.275000
20
-0.150000
40
0.010000
0
INSERT
8
0
2
EPAD
10
0.275000
20
-0.050000
41
0.050000
42
0.050000
0
CIRCLE
8
0
10
0.275000
20
-0.050000
40
0.010000
0
INSERT
8
0
2
EPAD
10
0.275000
20
0.050000
41
0.050000
42
0.050000
0
CIRCLE
8
0
10
0.275000
20
0.050000
40
0.010000
0
INSERT
8
0
2
EPAD
10
0.275000
20
0.150000
41
0.050000
42
0.050000
0
CIRCLE
8
0
10
0.275000
20
0.150000
40
0.010000
0
INSERT
8
0
2
EPAD
10
0.275000
20
0.250000
41
0.050000
42
0.050000
0
CIRCLE
8
0
10
0.275000
20
0.250000
40
0.010000
0
INSERT
8
0
2
EPAD
10
0.275000
20
0.350000
41
0.050000
42
0.050000
0
CIRCLE
8
0
10
0.275000
20
0.350000
40
0.010000
0
INSERT
8
0
2
EPAD
10
0.275000
20
0.450000
41
0.050000
42
0.050000
0
CIRCLE
8
0
10
0.275000
20
0.450000
40
0.010000
0
INSERT
8
0
2
EPAD
10
0.275000
20
0.550000
41
0.050000
42
0.050000
0
CIRCLE
8
0
10
0.275000
20
0.550000
40
0.010000
0
INSERT
8
0
2
EPAD
10
0.275000
20
0.650000
41
0.050000
42
0.050000
0
CIRCLE
8
0
10
0.275000
20
0.650000
40
0.010000
0
INSERT
8
0
2
EPAD
10
0.275000
20
0.749213
41
0.050000
42
0.050000
0
CIRCLE
8
0
10
0.275000
20
0.749213
40
0.010000
0
INSERT
8
0
2
EPAD
10
1.138332
20
-0.650000
41
0.060000
42
0.060000
0
CIRCLE
8
0
10
1.138332
20
-0.650000
40
0.025000
0
INSERT
8
0
2
EPAD
10
1.058332
20
-0.650000
41
0.060000
42
0.060000
0
CIRCLE
8
0
10
1.058332
20
-0.650000
40
0.025000
0
INSERT
8
0
2
EPAD
10
0.978332
20
-0.650000
41
0.060000
42
0.060000
0
CIRCLE
8
0
10
0.978332
20
-0.650000
40
0.025000
0
INSERT
8
0
2
EPAD
10
-1.475000
20
0.800000
41
0.050000
42
0.050000
0
CIRCLE
8
0
10
-1.475000
20
0.800000
40
0.010000
0
INSERT
8
0
2
EPAD
10
-1.475000
20
0.900000
41
0.050000
42
0.050000
0
CIRCLE
8
0
10
-1.475000
20
0.900000
40
0.010000
0
INSERT
8
0
2
EPAD
10
-0.825000
20
0.900000
41
0.050000
42
0.050000
0
CIRCLE
8
0
10
-0.825000
20
0.900000
40
0.025000
0
INSERT
8
0
2
EPAD
10
-0.725000
20
0.900000
41
0.050000
42
0.050000
0
CIRCLE
8
0
10
-0.725000
20
0.900000
40
0.025000
0
INSERT
8
0
2
EPAD
10
-0.625000
20
0.900000
41
0.050000
42
0.050000
0
CIRCLE
8
0
10
-0.625000
20
0.900000
40
0.025000
0
INSERT
8
0
2
EPAD
10
-0.525000
20
0.900000
41
0.050000
42
0.050000
0
CIRCLE
8
0
10
-0.525000
20
0.900000
40
0.025000
0
INSERT
8
0
2
EPAD
10
-0.425000
20
0.900000
41
0.050000
42
0.050000
0
CIRCLE
8
0
10
-0.425000
20
0.900000
40
0.025000
0
INSERT
8
0
2
EPAD
10
-0.325000
20
0.900000
41
0.050000
42
0.050000
0
CIRCLE
8
0
10
-0.325000
20
0.900000
40
0.025000
0
INSERT
8
0
2
EPAD
10
-0.225000
20
0.900000
41
0.050000
42
0.050000
0
CIRCLE
8
0
10
-0.225000
20
0.900000
40
0.025000
0
INSERT
8
0
2
EPAD
10
-0.125000
20
0.900000
41
0.050000
42
0.050000
0
CIRCLE
8
0
10
-0.125000
20
0.900000
40
0.025000
0
INSERT
8
0
2
EPAD
10
-0.025000
20
0.900000
41
0.050000
42
0.050000
0
CIRCLE
8
0
10
-0.025000
20
0.900000
40
0.025000
0
INSERT
8
0
2
EPAD
10
0.075000
20
0.900000
41
0.050000
42
0.050000
0
CIRCLE
8
0
10
0.075000
20
0.900000
40
0.025000
0
INSERT
8
0
2
EPAD
10
-1.475000
20
0.650000
41
0.070000
42
0.070000
0
CIRCLE
8
0
10
-1.475000
20
0.650000
40
0.025000
0
INSERT
8
0
2
EPAD
10
-1.075000
20
0.650000
41
0.070000
42
0.070000
0
CIRCLE
8
0
10
-1.075000
20
0.650000
40
0.025000
0
INSERT
8
0
2
EPAD
10
0.175000
20
0.900000
41
0.050000
42
0.050000
0
CIRCLE
8
0
10
0.175000
20
0.900000
40
0.025000
0
INSERT
8
0
2
EPAD
10
0.275000
20
0.900000
41
0.050000
42
0.050000
0
CIRCLE
8
0
10
0.275000
20
0.900000
40
0.025000
0
INSERT
8
0
2
EPAD
10
0.975000
20
0.680000
41
0.060000
42
0.060000
0
CIRCLE
8
0
10
0.975000
20
0.680000
40
0.025000
0
INSERT
8
0
2
EPAD
10
0.975000
20
0.600000
41
0.060000
42
0.060000
0
CIRCLE
8
0
10
0.975000
20
0.600000
40
0.025000
0
INSERT
8
0
2
EPAD
10
0.975000
20
0.520000
41
0.060000
42
0.060000
0
CIRCLE
8
0
10
0.975000
20
0.520000
40
0.025000
0
INSERT
8
0
2
EPAD
10
0.975000
20
0.380000
41
0.060000
42
0.060000
0
CIRCLE
8
0
10
0.975000
20
0.380000
40
0.025000
0
INSERT
8
0
2
EPAD
10
0.975000
20
0.300000
41
0.060000
42
0.060000
0
CIRCLE
8
0
10
0.975000
20
0.300000
40
0.025000
0
INSERT
8
0
2
EPAD
10
0.975000
20
0.220000
41
0.060000
42
0.060000
0
CIRCLE
8
0
10
0.975000
20
0.220000
40
0.025000
0
INSERT
8
0
2
EPAD
10
0.425000
20
0.600000
41
0.070000
42
0.070000
0
CIRCLE
8
0
10
0.425000
20
0.600000
40
0.025000
0
INSERT
8
0
2
EPAD
10
0.825000
20
0.600000
41
0.070000
42
0.070000
0
CIRCLE
8
0
10
0.825000
20
0.600000
40
0.025000
0
INSERT
8
0
2
EPAD
10
0.425000
20
0.300000
41
0.070000
42
0.070000
0
CIRCLE
8
0
10
0.425000
20
0.300000
40
0.025000
0
INSERT
8
0
2
EPAD
10
0.825000
20
0.300000
41
0.070000
42
0.070000
0
CIRCLE
8
0
10
0.825000
20
0.300000
40
0.025000
0
INSERT
8
0
2
EPAD
10
1.125000
20
0.900000
41
0.050000
42
0.050000
0
CIRCLE
8
0
10
1.125000
20
0.900000
40
0.025000
0
INSERT
8
0
2
EPAD
10
1.225000
20
0.900000
41
0.050000
42
0.050000
0
CIRCLE
8
0
10
1.225000
20
0.900000
40
0.025000
0
INSERT
8
0
2
EPAD
10
1.325000
20
0.900000
41
0.050000
42
0.050000
0
CIRCLE
8
0
10
1.325000
20
0.900000
40
0.025000
0
INSERT
8
0
2
EPAD
10
1.425000
20
0.900000
41
0.050000
42
0.050000
0
CIRCLE
8
0
10
1.425000
20
0.900000
40
0.025000
0
INSERT
8
0
2
EPAD
10
1.425000
20
0.750000
41
0.070000
42
0.070000
0
CIRCLE
8
0
10
1.425000
20
0.750000
40
0.025000
0
INSERT
8
0
2
EPAD
10
1.425000
20
0.350000
41
0.070000
42
0.070000
0
CIRCLE
8
0
10
1.425000
20
0.350000
40
0.025000
0
INSERT
8
0
2
EPAD
10
1.225000
20
0.750000
41
0.070000
42
0.070000
0
CIRCLE
8
0
10
1.225000
20
0.750000
40
0.025000
0
INSERT
8
0
2
EPAD
10
1.225000
20
0.350000
41
0.070000
42
0.070000
0
CIRCLE
8
0
10
1.225000
20
0.350000
40
0.025000
0
INSERT
8
0
2
EPAD
10
1.375000
20
-0.086668
41
0.060000
42
0.060000
0
CIRCLE
8
0
10
1.375000
20
-0.086668
40
0.025000
0
INSERT
8
0
2
EPAD
10
1.375000
20
-0.166668
41
0.060000
42
0.060000
0
CIRCLE
8
0
10
1.375000
20
-0.166668
40
0.025000
0
INSERT
8
0
2
EPAD
10
1.375000
20
-0.246668
41
0.060000
42
0.060000
0
CIRCLE
8
0
10
1.375000
20
-0.246668
40
0.025000
0
INSERT
8
0
2
EPAD
10
1.375000
20
-0.386668
41
0.060000
42
0.060000
0
CIRCLE
8
0
10
1.375000
20
-0.386668
40
0.025000
0
INSERT
8
0
2
EPAD
10
1.375000
20
-0.466668
41
0.060000
42
0.060000
0
CIRCLE
8
0
10
1.375000
20
-0.466668
40
0.025000
0
INSERT
8
0
2
EPAD
10
1.375000
20
-0.546668
41
0.060000
42
0.060000
0
CIRCLE
8
0
10
1.375000
20
-0.546668
40
0.025000
0
INSERT
8
0
2
EPAD
10
1.375000
20
0.213332
41
0.060000
42
0.060000
0
CIRCLE
8
0
10
1.375000
20
0.213332
40
0.025000
0
INSERT
8
0
2
EPAD
10
1.375000
20
0.133332
41
0.060000
42
0.060000
0
CIRCLE
8
0
10
1.375000
20
0.133332
40
0.025000
0
INSERT
8
0
2
EPAD
10
1.375000
20
0.053332
41
0.060000
42
0.060000
0
CIRCLE
8
0
10
1.375000
20
0.053332
40
0.025000
0
INSERT
8
0
2
EPAD
10
0.575000
20
0.050000
41
0.070000
42
0.070000
0
CIRCLE
8
0
10
0.575000
20
0.050000
40
0.025000
0
INSERT
8
0
2
EPAD
10
0.975000
20
0.050000
41
0.070000
42
0.070000
0
CIRCLE
8
0
10
0.975000
20
0.050000
40
0.025000
0
INSERT
8
0
2
EPAD
10
0.575000
20
-0.100000
41
0.070000
42
0.070000
0
CIRCLE
8
0
10
0.575000
20
-0.100000
40
0.025000
0
INSERT
8
0
2
EPAD
10
0.975000
20
-0.100000
41
0.070000
42
0.070000
0
CIRCLE
8
0
10
0.975000
20
-0.100000
40
0.025000
0
INSERT
8
0
2
EPAD
10
0.575000
20
-0.250000
41
0.070000
42
0.070000
0
CIRCLE
8
0
10
0.575000
20
-0.250000
40
0.025000
0
INSERT
8
0
2
EPAD
10
0.975000
20
-0.250000
41
0.070000
42
0.070000
0
CIRCLE
8
0
10
0.975000
20
-0.250000
40
0.025000
0
INSERT
8
0
2
EPAD
10
0.575000
20
-0.400000
41
0.070000
42
0.070000
0
CIRCLE
8
0
10
0.575000
20
-0.400000
40
0.025000
0
INSERT
8
0
2
EPAD
10
0.975000
20
-0.400000
41
0.070000
42
0.070000
0
CIRCLE
8
0
10
0.975000
20
-0.400000
40
0.025000
0
INSERT
8
0
2
EPAD
10
1.625000
20
0.150000
41
0.050000
42
0.050000
0
CIRCLE
8
0
10
1.625000
20
0.150000
40
0.025000
0
INSERT
8
0
2
EPAD
10
1.625000
20
-0.450000
41
0.050000
42
0.050000
0
CIRCLE
8
0
10
1.625000
20
-0.450000
40
0.025000
0
INSERT
8
0
2
EPAD
10
1.625000
20
-0.150000
41
0.050000
42
0.050000
0
CIRCLE
8
0
10
1.625000
20
-0.150000
40
0.025000
0
INSERT
8
0
2
EPAD
10
-0.525000
20
-0.400000
41
0.070000
42
0.070000
0
CIRCLE
8
0
10
-0.525000
20
-0.400000
40
0.025000
0
INSERT
8
0
2
EPAD
10
-0.125000
20
-0.400000
41
0.070000
42
0.070000
0
CIRCLE
8
0
10
-0.125000
20
-0.400000
40
0.025000
0
INSERT
8
0
2
EPAD
10
-0.525000
20
-0.550000
41
0.070000
42
0.070000
0
CIRCLE
8
0
10
-0.525000
20
-0.550000
40
0.025000
0
INSERT
8
0
2
EPAD
10
-0.125000
20
-0.550000
41
0.070000
42
0.070000
0
CIRCLE
8
0
10
-0.125000
20
-0.550000
40
0.025000
0
INSERT
8
0
2
EPAD
10
-0.525000
20
-0.700000
41
0.070000
42
0.070000
0
CIRCLE
8
0
10
-0.525000
20
-0.700000
40
0.025000
0
INSERT
8
0
2
EPAD
10
-0.125000
20
-0.700000
41
0.070000
42
0.070000
0
CIRCLE
8
0
10
-0.125000
20
-0.700000
40
0.025000
0
INSERT
8
0
2
EPAD
10
-0.675000
20
-0.400000
41
0.050000
42
0.050000
0
CIRCLE
8
0
10
-0.675000
20
-0.400000
40
0.025000
0
INSERT
8
0
2
EPAD
10
-0.825000
20
-0.400000
41
0.050000
42
0.050000
0
CIRCLE
8
0
10
-0.825000
20
-0.400000
40
0.025000
0
INSERT
8
0
2
EPAD
10
-0.675000
20
-0.550000
41
0.050000
42
0.050000
0
CIRCLE
8
0
10
-0.675000
20
-0.550000
40
0.025000
0
INSERT
8
0
2
EPAD
10
-0.825000
20
-0.550000
41
0.050000
42
0.050000
0
CIRCLE
8
0
10
-0.825000
20
-0.550000
40
0.025000
0
INSERT
8
0
2
EPAD
10
-0.825000
20
-0.700000
41
0.050000
42
0.050000
0
CIRCLE
8
0
10
-0.825000
20
-0.700000
40
0.025000
0
INSERT
8
0
2
EPAD
10
-0.675000
20
-0.700000
41
0.050000
42
0.050000
0
CIRCLE
8
0
10
-0.675000
20
-0.700000
40
0.025000
0
INSERT
8
0
2
EPAD
10
1.725000
20
0.150000
41
0.050000
42
0.050000
0
CIRCLE
8
0
10
1.725000
20
0.150000
40
0.010000
0
INSERT
8
0
2
EPAD
10
1.725000
20
-0.150000
41
0.050000
42
0.050000
0
CIRCLE
8
0
10
1.725000
20
-0.150000
40
0.010000
0
INSERT
8
0
2
EPAD
10
1.725000
20
-0.450000
41
0.050000
42
0.050000
0
CIRCLE
8
0
10
1.725000
20
-0.450000
40
0.010000
0
INSERT
8
0
2
EPAD
10
-0.375000
20
0.140945
41
0.038583
42
0.038583
0
CIRCLE
8
0
10
-0.375000
20
0.140945
40
0.025591
0
INSERT
8
0
2
EPAD
10
-0.375000
20
0.200000
41
0.038583
42
0.038583
0
CIRCLE
8
0
10
-0.375000
20
0.200000
40
0.025591
0
INSERT
8
0
2
EPAD
10
-0.175000
20
0.200000
41
0.070000
42
0.070000
0
CIRCLE
8
0
10
-0.175000
20
0.200000
40
0.025000
0
INSERT
8
0
2
EPAD
10
-0.175000
20
0.000000
41
0.070000
42
0.070000
0
CIRCLE
8
0
10
-0.175000
20
0.000000
40
0.025000
0
INSERT
8
0
2
EPAD
10
1.625000
20
0.350000
41
0.040000
42
0.040000
0
CIRCLE
8
0
10
1.625000
20
0.350000
40
0.015000
0
INSERT
8
0
2
EPAD
10
1.725000
20
0.350000
41
0.040000
42
0.040000
0
CIRCLE
8
0
10
1.725000
20
0.350000
40
0.015000
0
INSERT
8
0
2
EPAD
10
1.825000
20
0.350000
41
0.040000
42
0.040000
0
CIRCLE
8
0
10
1.825000
20
0.350000
40
0.015000
0
INSERT
8
0
2
EPAD
10
1.825000
20
0.450000
41
0.050000
42
0.050000
0
CIRCLE
8
0
10
1.825000
20
0.450000
40
0.010000
0
POLYLINE
8
0
66
1
40
0.008000
41
0.008000
0
VERTEX
8
0
10
-1.625000
20
-0.850000
0
VERTEX
8
0
10
1.875000
20
-0.850000
0
VERTEX
8
0
10
1.875000
20
1.100000
0
VERTEX
8
0
10
-1.625000
20
1.100000
0
VERTEX
8
0
10
-1.625000
20
-0.850000
0
SEQEND
8
0
0
POLYLINE
8
0
66
1
40
0.008000
41
0.008000
0
VERTEX
8
0
10
0.025000
20
0.774213
0
VERTEX
8
0
10
0.025000
20
-0.575787
0
VERTEX
8
0
10
0.225000
20
-0.575787
0
VERTEX
8
0
10
0.225000
20
0.774213
0
SEQEND
8
0
0
POLYLINE
8
0
66
1
40
0.008000
41
0.008000
0
VERTEX
8
0
10
0.025000
20
0.774213
0
VERTEX
8
0
10
0.075000
20
0.774213
0
SEQEND
8
0
0
POLYLINE
8
0
66
1
40
0.008000
41
0.008000
0
VERTEX
8
0
10
0.225000
20
0.774213
0
VERTEX
8
0
10
0.175000
20
0.774213
0
SEQEND
8
0
0
POLYLINE
8
0
66
1
40
0.008000
41
0.008000
0
VERTEX
8
0
10
0.075000
20
0.774213
0
VERTEX
8
0
10
0.075995
20
0.763989
0
VERTEX
8
0
10
0.078857
20
0.754535
0
VERTEX
8
0
10
0.083405
20
0.746033
0
VERTEX
8
0
10
0.089453
20
0.738666
0
VERTEX
8
0
10
0.096820
20
0.732617
0
VERTEX
8
0
10
0.105322
20
0.728070
0
VERTEX
8
0
10
0.114777
20
0.725207
0
VERTEX
8
0
10
0.125000
20
0.724213
0
SEQEND
8
0
0
POLYLINE
8
0
66
1
40
0.008000
41
0.008000
0
VERTEX
8
0
10
0.175000
20
0.774213
0
VERTEX
8
0
10
0.174005
20
0.763989
0
VERTEX
8
0
10
0.171143
20
0.754535
0
VERTEX
8
0
10
0.166595
20
0.746033
0
VERTEX
8
0
10
0.160547
20
0.738666
0
VERTEX
8
0
10
0.153180
20
0.732617
0
VERTEX
8
0
10
0.144678
20
0.728070
0
VERTEX
8
0
10
0.135224
20
0.725207
0
VERTEX
8
0
10
0.125000
20
0.724213
0
SEQEND
8
0
0
CIRCLE
8
0
10
0.041000
20
0.754213
40
0.002828
0
POLYLINE
8
0
66
1
40
0.008000
41
0.008000
0
VERTEX
8
0
10
1.158332
20
-0.585000
0
VERTEX
8
0
10
0.958332
20
-0.585000
0
SEQEND
8
0
0
POLYLINE
8
0
66
1
40
0.008000
41
0.008000
0
VERTEX
8
0
10
1.188332
20
-0.650000
0
VERTEX
8
0
10
1.186457
20
-0.634922
0
VERTEX
8
0
10
1.180832
20
-0.619375
0
VERTEX
8
0
10
1.171457
20
-0.602891
0
VERTEX
8
0
10
1.158332
20
-0.585000
0
SEQEND
8
0
0
POLYLINE
8
0
66
1
40
0.008000
41
0.008000
0
VERTEX
8
0
10
1.188332
20
-0.650000
0
VERTEX
8
0
10
1.187296
20
-0.675558
0
VERTEX
8
0
10
1.180808
20
-0.699194
0
VERTEX
8
0
10
1.169419
20
-0.720450
0
VERTEX
8
0
10
1.153684
20
-0.738867
0
VERTEX
8
0
10
1.134154
20
-0.753989
0
VERTEX
8
0
10
1.111384
20
-0.765356
0
VERTEX
8
0
10
1.085926
20
-0.772513
0
VERTEX
8
0
10
1.058332
20
-0.775000
0
SEQEND
8
0
0
POLYLINE
8
0
66
1
40
0.008000
41
0.008000
0
VERTEX
8
0
10
0.928332
20
-0.650000
0
VERTEX
8
0
10
0.930207
20
-0.634922
0
VERTEX
8
0
10
0.935832
20
-0.619375
0
VERTEX
8
0
10
0.945207
20
-0.602891
0
VERTEX
8
0
10
0.958332
20
-0.585000
0
SEQEND
8
0
0
POLYLINE
8
0
66
1
40
0.008000
41
0.008000
0
VERTEX
8
0
10
0.928332
20
-0.650000
0
VERTEX
8
0
10
0.929368
20
-0.675558
0
VERTEX
8
0
10
0.935857
20
-0.699194
0
VERTEX
8
0
10
0.947245
20
-0.720450
0
VERTEX
8
0
10
0.962981
20
-0.738867
0
VERTEX
8
0
10
0.982510
20
-0.753989
0
VERTEX
8
0
10
1.005281
20
-0.765356
0
VERTEX
8
0
10
1.030739
20
-0.772513
0
VERTEX
8
0
10
1.058332
20
-0.775000
0
SEQEND
8
0
0
POLYLINE
8
0
66
1
40
0.008000
41
0.008000
0
VERTEX
8
0
10
-1.425000
20
0.650000
0
VERTEX
8
0
10
-1.375000
20
0.650000
0
SEQEND
8
0
0
POLYLINE
8
0
66
1
40
0.008000
41
0.008000
0
VERTEX
8
0
10
-1.375000
20
0.625000
0
VERTEX
8
0
10
-1.175000
20
0.625000
0
VERTEX
8
0
10
-1.175000
20
0.675000
0
VERTEX
8
0
10
-1.375000
20
0.675000
0
VERTEX
8
0
10
-1.375000
20
0.625000
0
SEQEND
8
0
0
POLYLINE
8
0
66
1
40
0.008000
41
0.008000
0
VERTEX
8
0
10
-1.175000
20
0.650000
0
VERTEX
8
0
10
-1.125000
20
0.650000
0
SEQEND
8
0
0
POLYLINE
8
0
66
1
40
0.008000
41
0.008000
0
VERTEX
8
0
10
0.910000
20
0.700000
0
VERTEX
8
0
10
0.910000
20
0.500000
0
SEQEND
8
0
0
POLYLINE
8
0
66
1
40
0.008000
41
0.008000
0
VERTEX
8
0
10
0.975000
20
0.730000
0
VERTEX
8
0
10
0.959922
20
0.728125
0
VERTEX
8
0
10
0.944375
20
0.722500
0
VERTEX
8
0
10
0.927891
20
0.713125
0
VERTEX
8
0
10
0.910000
20
0.700000
0
SEQEND
8
0
0
POLYLINE
8
0
66
1
40
0.008000
41
0.008000
0
VERTEX
8
0
10
0.975000
20
0.730000
0
VERTEX
8
0
10
1.000558
20
0.728964
0
VERTEX
8
0
10
1.024194
20
0.722476
0
VERTEX
8
0
10
1.045450
20
0.711087
0
VERTEX
8
0
10
1.063867
20
0.695352
0
VERTEX
8
0
10
1.078989
20
0.675822
0
VERTEX
8
0
10
1.090356
20
0.653052
0
VERTEX
8
0
10
1.097513
20
0.627593
0
VERTEX
8
0
10
1.100000
20
0.600000
0
SEQEND
8
0
0
POLYLINE
8
0
66
1
40
0.008000
41
0.008000
0
VERTEX
8
0
10
0.975000
20
0.470000
0
VERTEX
8
0
10
0.959922
20
0.471875
0
VERTEX
8
0
10
0.944375
20
0.477500
0
VERTEX
8
0
10
0.927891
20
0.486875
0
VERTEX
8
0
10
0.910000
20
0.500000
0
SEQEND
8
0
0
POLYLINE
8
0
66
1
40
0.008000
41
0.008000
0
VERTEX
8
0
10
0.975000
20
0.470000
0
VERTEX
8
0
10
1.000558
20
0.471036
0
VERTEX
8
0
10
1.024194
20
0.477524
0
VERTEX
8
0
10
1.045450
20
0.488913
0
VERTEX
8
0
10
1.063867
20
0.504648
0
VERTEX
8
0
10
1.078989
20
0.524178
0
VERTEX
8
0
10
1.090356
20
0.546948
0
VERTEX
8
0
10
1.097513
20
0.572407
0
VERTEX
8
0
10
1.100000
20
0.600000
0
SEQEND
8
0
0
POLYLINE
8
0
66
1
40
0.008000
41
0.008000
0
VERTEX
8
0
10
0.910000
20
0.400000
0
VERTEX
8
0
10
0.910000
20
0.200000
0
SEQEND
8
0
0
POLYLINE
8
0
66
1
40
0.008000
41
0.008000
0
VERTEX
8
0
10
0.975000
20
0.430000
0
VERTEX
8
0
10
0.959922
20
0.428125
0
VERTEX
8
0
10
0.944375
20
0.422500
0
VERTEX
8
0
10
0.927891
20
0.413125
0
VERTEX
8
0
10
0.910000
20
0.400000
0
SEQEND
8
0
0
POLYLINE
8
0
66
1
40
0.008000
41
0.008000
0
VERTEX
8
0
10
0.975000
20
0.430000
0
VERTEX
8
0
10
1.000558
20
0.428964
0
VERTEX
8
0
10
1.024194
20
0.422476
0
VERTEX
8
0
10
1.045450
20
0.411087
0
VERTEX
8
0
10
1.063867
20
0.395352
0
VERTEX
8
0
10
1.078989
20
0.375822
0
VERTEX
8
0
10
1.090356
20
0.353052
0
VERTEX
8
0
10
1.097513
20
0.327593
0
VERTEX
8
0
10
1.100000
20
0.300000
0
SEQEND
8
0
0
POLYLINE
8
0
66
1
40
0.008000
41
0.008000
0
VERTEX
8
0
10
0.975000
20
0.170000
0
VERTEX
8
0
10
0.959922
20
0.171875
0
VERTEX
8
0
10
0.944375
20
0.177500
0
VERTEX
8
0
10
0.927891
20
0.186875
0
VERTEX
8
0
10
0.910000
20
0.200000
0
SEQEND
8
0
0
POLYLINE
8
0
66
1
40
0.008000
41
0.008000
0
VERTEX
8
0
10
0.975000
20
0.170000
0
VERTEX
8
0
10
1.000558
20
0.171036
0
VERTEX
8
0
10
1.024194
20
0.177524
0
VERTEX
8
0
10
1.045450
20
0.188913
0
VERTEX
8
0
10
1.063867
20
0.204648
0
VERTEX
8
0
10
1.078989
20
0.224178
0
VERTEX
8
0
10
1.090356
20
0.246948
0
VERTEX
8
0
10
1.097513
20
0.272407
0
VERTEX
8
0
10
1.100000
20
0.300000
0
SEQEND
8
0
0
POLYLINE
8
0
66
1
40
0.008000
41
0.008000
0
VERTEX
8
0
10
0.475000
20
0.600000
0
VERTEX
8
0
10
0.525000
20
0.600000
0
SEQEND
8
0
0
POLYLINE
8
0
66
1
40
0.008000
41
0.008000
0
VERTEX
8
0
10
0.525000
20
0.575000
0
VERTEX
8
0
10
0.725000
20
0.575000
0
VERTEX
8
0
10
0.725000
20
0.625000
0
VERTEX
8
0
10
0.525000
20
0.625000
0
VERTEX
8
0
10
0.525000
20
0.575000
0
SEQEND
8
0
0
POLYLINE
8
0
66
1
40
0.008000
41
0.008000
0
VERTEX
8
0
10
0.725000
20
0.600000
0
VERTEX
8
0
10
0.775000
20
0.600000
0
SEQEND
8
0
0
POLYLINE
8
0
66
1
40
0.008000
41
0.008000
0
VERTEX
8
0
10
0.475000
20
0.300000
0
VERTEX
8
0
10
0.525000
20
0.300000
0
SEQEND
8
0
0
POLYLINE
8
0
66
1
40
0.008000
41
0.008000
0
VERTEX
8
0
10
0.525000
20
0.275000
0
VERTEX
8
0
10
0.725000
20
0.275000
0
VERTEX
8
0
10
0.725000
20
0.325000
0
VERTEX
8
0
10
0.525000
20
0.325000
0
VERTEX
8
0
10
0.525000
20
0.275000
0
SEQEND
8
0
0
POLYLINE
8
0
66
1
40
0.008000
41
0.008000
0
VERTEX
8
0
10
0.725000
20
0.300000
0
VERTEX
8
0
10
0.775000
20
0.300000
0
SEQEND
8
0
0
POLYLINE
8
0
66
1
40
0.008000
41
0.008000
0
VERTEX
8
0
10
1.425000
20
0.700000
0
VERTEX
8
0
10
1.425000
20
0.650000
0
SEQEND
8
0
0
POLYLINE
8
0
66
1
40
0.008000
41
0.008000
0
VERTEX
8
0
10
1.400000
20
0.450000
0
VERTEX
8
0
10
1.450000
20
0.450000
0
VERTEX
8
0
10
1.450000
20
0.650000
0
VERTEX
8
0
10
1.400000
20
0.650000
0
VERTEX
8
0
10
1.400000
20
0.450000
0
SEQEND
8
0
0
POLYLINE
8
0
66
1
40
0.008000
41
0.008000
0
VERTEX
8
0
10
1.425000
20
0.450000
0
VERTEX
8
0
10
1.425000
20
0.400000
0
SEQEND
8
0
0
POLYLINE
8
0
66
1
40
0.008000
41
0.008000
0
VERTEX
8
0
10
1.225000
20
0.700000
0
VERTEX
8
0
10
1.225000
20
0.650000
0
SEQEND
8
0
0
POLYLINE
8
0
66
1
40
0.008000
41
0.008000
0
VERTEX
8
0
10
1.200000
20
0.450000
0
VERTEX
8
0
10
1.250000
20
0.450000
0
VERTEX
8
0
10
1.250000
20
0.650000
0
VERTEX
8
0
10
1.200000
20
0.650000
0
VERTEX
8
0
10
1.200000
20
0.450000
0
SEQEND
8
0
0
POLYLINE
8
0
66
1
40
0.008000
41
0.008000
0
VERTEX
8
0
10
1.225000
20
0.450000
0
VERTEX
8
0
10
1.225000
20
0.400000
0
SEQEND
8
0
0
TEXT
8
0
10
1.475000
20
0.896000
40
0.048000
41
0.833333
1
2-
0
TEXT
8
0
10
0.975000
20
0.896000
40
0.048000
41
0.833333
1
1+
0
POLYLINE
8
0
66
1
40
0.008000
41
0.008000
0
VERTEX
8
0
10
1.310000
20
-0.066668
0
VERTEX
8
0
10
1.310000
20
-0.266668
0
SEQEND
8
0
0
POLYLINE
8
0
66
1
40
0.008000
41
0.008000
0
VERTEX
8
0
10
1.375000
20
-0.036668
0
VERTEX
8
0
10
1.359922
20
-0.038543
0
VERTEX
8
0
10
1.344375
20
-0.044168
0
VERTEX
8
0
10
1.327891
20
-0.053543
0
VERTEX
8
0
10
1.310000
20
-0.066668
0
SEQEND
8
0
0
POLYLINE
8
0
66
1
40
0.008000
41
0.008000
0
VERTEX
8
0
10
1.375000
20
-0.036668
0
VERTEX
8
0
10
1.400558
20
-0.037704
0
VERTEX
8
0
10
1.424194
20
-0.044192
0
VERTEX
8
0
10
1.445450
20
-0.055581
0
VERTEX
8
0
10
1.463867
20
-0.071316
0
VERTEX
8
0
10
1.478989
20
-0.090846
0
VERTEX
8
0
10
1.490356
20
-0.113616
0
VERTEX
8
0
10
1.497513
20
-0.139074
0
VERTEX
8
0
10
1.500000
20
-0.166668
0
SEQEND
8
0
0
POLYLINE
8
0
66
1
40
0.008000
41
0.008000
0
VERTEX
8
0
10
1.375000
20
-0.296668
0
VERTEX
8
0
10
1.359922
20
-0.294793
0
VERTEX
8
0
10
1.344375
20
-0.289168
0
VERTEX
8
0
10
1.327891
20
-0.279793
0
VERTEX
8
0
10
1.310000
20
-0.266668
0
SEQEND
8
0
0
POLYLINE
8
0
66
1
40
0.008000
41
0.008000
0
VERTEX
8
0
10
1.375000
20
-0.296668
0
VERTEX
8
0
10
1.400558
20
-0.295632
0
VERTEX
8
0
10
1.424194
20
-0.289143
0
VERTEX
8
0
10
1.445450
20
-0.277755
0
VERTEX
8
0
10
1.463867
20
-0.262019
0
VERTEX
8
0
10
1.478989
20
-0.242490
0
VERTEX
8
0
10
1.490356
20
-0.219719
0
VERTEX
8
0
10
1.497513
20
-0.194261
0
VERTEX
8
0
10
1.500000
20
-0.166668
0
SEQEND
8
0
0
POLYLINE
8
0
66
1
40
0.008000
41
0.008000
0
VERTEX
8
0
10
1.310000
20
-0.366668
0
VERTEX
8
0
10
1.310000
20
-0.566668
0
SEQEND
8
0
0
POLYLINE
8
0
66
1
40
0.008000
41
0.008000
0
VERTEX
8
0
10
1.375000
20
-0.336668
0
VERTEX
8
0
10
1.359922
20
-0.338543
0
VERTEX
8
0
10
1.344375
20
-0.344168
0
VERTEX
8
0
10
1.327891
20
-0.353543
0
VERTEX
8
0
10
1.310000
20
-0.366668
0
SEQEND
8
0
0
POLYLINE
8
0
66
1
40
0.008000
41
0.008000
0
VERTEX
8
0
10
1.375000
20
-0.336668
0
VERTEX
8
0
10
1.400558
20
-0.337704
0
VERTEX
8
0
10
1.424194
20
-0.344192
0
VERTEX
8
0
10
1.445450
20
-0.355581
0
VERTEX
8
0
10
1.463867
20
-0.371316
0
VERTEX
8
0
10
1.478989
20
-0.390846
0
VERTEX
8
0
10
1.490356
20
-0.413616
0
VERTEX
8
0
10
1.497513
20
-0.439074
0
VERTEX
8
0
10
1.500000
20
-0.466668
0
SEQEND
8
0
0
POLYLINE
8
0
66
1
40
0.008000
41
0.008000
0
VERTEX
8
0
10
1.375000
20
-0.596668
0
VERTEX
8
0
10
1.359922
20
-0.594793
0
VERTEX
8
0
10
1.344375
20
-0.589168
0
VERTEX
8
0
10
1.327891
20
-0.579793
0
VERTEX
8
0
10
1.310000
20
-0.566668
0
SEQEND
8
0
0
POLYLINE
8
0
66
1
40
0.008000
41
0.008000
0
VERTEX
8
0
10
1.375000
20
-0.596668
0
VERTEX
8
0
10
1.400558
20
-0.595632
0
VERTEX
8
0
10
1.424194
20
-0.589143
0
VERTEX
8
0
10
1.445450
20
-0.577755
0
VERTEX
8
0
10
1.463867
20
-0.562019
0
VERTEX
8
0
10
1.478989
20
-0.542490
0
VERTEX
8
0
10
1.490356
20
-0.519719
0
VERTEX
8
0
10
1.497513
20
-0.494261
0
VERTEX
8
0
10
1.500000
20
-0.466668
0
SEQEND
8
0
0
POLYLINE
8
0
66
1
40
0.008000
41
0.008000
0
VERTEX
8
0
10
1.310000
20
0.233332
0
VERTEX
8
0
10
1.310000
20
0.033332
0
SEQEND
8
0
0
POLYLINE
8
0
66
1
40
0.008000
41
0.008000
0
VERTEX
8
0
10
1.375000
20
0.263332
0
VERTEX
8
0
10
1.359922
20
0.261457
0
VERTEX
8
0
10
1.344375
20
0.255832
0
VERTEX
8
0
10
1.327891
20
0.246457
0
VERTEX
8
0
10
1.310000
20
0.233332
0
SEQEND
8
0
0
POLYLINE
8
0
66
1
40
0.008000
41
0.008000
0
VERTEX
8
0
10
1.375000
20
0.263332
0
VERTEX
8
0
10
1.400558
20
0.262296
0
VERTEX
8
0
10
1.424194
20
0.255808
0
VERTEX
8
0
10
1.445450
20
0.244419
0
VERTEX
8
0
10
1.463867
20
0.228684
0
VERTEX
8
0
10
1.478989
20
0.209154
0
VERTEX
8
0
10
1.490356
20
0.186384
0
VERTEX
8
0
10
1.497513
20
0.160926
0
VERTEX
8
0
10
1.500000
20
0.133332
0
SEQEND
8
0
0
POLYLINE
8
0
66
1
40
0.008000
41
0.008000
0
VERTEX
8
0
10
1.375000
20
0.003332
0
VERTEX
8
0
10
1.359922
20
0.005207
0
VERTEX
8
0
10
1.344375
20
0.010832
0
VERTEX
8
0
10
1.327891
20
0.020207
0
VERTEX
8
0
10
1.310000
20
0.033332
0
SEQEND
8
0
0
POLYLINE
8
0
66
1
40
0.008000
41
0.008000
0
VERTEX
8
0
10
1.375000
20
0.003332
0
VERTEX
8
0
10
1.400558
20
0.004368
0
VERTEX
8
0
10
1.424194
20
0.010857
0
VERTEX
8
0
10
1.445450
20
0.022245
0
VERTEX
8
0
10
1.463867
20
0.037981
0
VERTEX
8
0
10
1.478989
20
0.057510
0
VERTEX
8
0
10
1.490356
20
0.080281
0
VERTEX
8
0
10
1.497513
20
0.105739
0
VERTEX
8
0
10
1.500000
20
0.133332
0
SEQEND
8
0
0
POLYLINE
8
0
66
1
40
0.008000
41
0.008000
0
VERTEX
8
0
10
0.625000
20
0.050000
0
VERTEX
8
0
10
0.675000
20
0.050000
0
SEQEND
8
0
0
POLYLINE
8
0
66
1
40
0.008000
41
0.008000
0
VERTEX
8
0
10
0.675000
20
0.025000
0
VERTEX
8
0
10
0.875000
20
0.025000
0
VERTEX
8
0
10
0.875000
20
0.075000
0
VERTEX
8
0
10
0.675000
20
0.075000
0
VERTEX
8
0
10
0.675000
20
0.025000
0
SEQEND
8
0
0
POLYLINE
8
0
66
1
40
0.008000
41
0.008000
0
VERTEX
8
0
10
0.875000
20
0.050000
0
VERTEX
8
0
10
0.925000
20
0.050000
0
SEQEND
8
0
0
POLYLINE
8
0
66
1
40
0.008000
41
0.008000
0
VERTEX
8
0
10
0.625000
20
-0.100000
0
VERTEX
8
0
10
0.675000
20
-0.100000
0
SEQEND
8
0
0
POLYLINE
8
0
66
1
40
0.008000
41
0.008000
0
VERTEX
8
0
10
0.675000
20
-0.125000
0
VERTEX
8
0
10
0.875000
20
-0.125000
0
VERTEX
8
0
10
0.875000
20
-0.075000
0
VERTEX
8
0
10
0.675000
20
-0.075000
0
VERTEX
8
0
10
0.675000
20
-0.125000
0
SEQEND
8
0
0
POLYLINE
8
0
66
1
40
0.008000
41
0.008000
0
VERTEX
8
0
10
0.875000
20
-0.100000
0
VERTEX
8
0
10
0.925000
20
-0.100000
0
SEQEND
8
0
0
POLYLINE
8
0
66
1
40
0.008000
41
0.008000
0
VERTEX
8
0
10
0.625000
20
-0.250000
0
VERTEX
8
0
10
0.675000
20
-0.250000
0
SEQEND
8
0
0
POLYLINE
8
0
66
1
40
0.008000
41
0.008000
0
VERTEX
8
0
10
0.675000
20
-0.275000
0
VERTEX
8
0
10
0.875000
20
-0.275000
0
VERTEX
8
0
10
0.875000
20
-0.225000
0
VERTEX
8
0
10
0.675000
20
-0.225000
0
VERTEX
8
0
10
0.675000
20
-0.275000
0
SEQEND
8
0
0
POLYLINE
8
0
66
1
40
0.008000
41
0.008000
0
VERTEX
8
0
10
0.875000
20
-0.250000
0
VERTEX
8
0
10
0.925000
20
-0.250000
0
SEQEND
8
0
0
POLYLINE
8
0
66
1
40
0.008000
41
0.008000
0
VERTEX
8
0
10
0.625000
20
-0.400000
0
VERTEX
8
0
10
0.675000
20
-0.400000
0
SEQEND
8
0
0
POLYLINE
8
0
66
1
40
0.008000
41
0.008000
0
VERTEX
8
0
10
0.675000
20
-0.425000
0
VERTEX
8
0
10
0.875000
20
-0.425000
0
VERTEX
8
0
10
0.875000
20
-0.375000
0
VERTEX
8
0
10
0.675000
20
-0.375000
0
VERTEX
8
0
10
0.675000
20
-0.425000
0
SEQEND
8
0
0
POLYLINE
8
0
66
1
40
0.008000
41
0.008000
0
VERTEX
8
0
10
0.875000
20
-0.400000
0
VERTEX
8
0
10
0.925000
20
-0.400000
0
SEQEND
8
0
0
TEXT
8
0
10
1.525000
20
0.210000
40
0.080000
41
1.000000
1
-
0
TEXT
8
0
10
1.775000
20
0.210000
40
0.080000
41
1.000000
1
+
0
POLYLINE
8
0
66
1
40
0.008000
41
0.008000
0
VERTEX
8
0
10
-0.475000
20
-0.400000
0
VERTEX
8
0
10
-0.425000
20
-0.400000
0
SEQEND
8
0
0
POLYLINE
8
0
66
1
40
0.008000
41
0.008000
0
VERTEX
8
0
10
-0.425000
20
-0.425000
0
VERTEX
8
0
10
-0.225000
20
-0.425000
0
VERTEX
8
0
10
-0.225000
20
-0.375000
0
VERTEX
8
0
10
-0.425000
20
-0.375000
0
VERTEX
8
0
10
-0.425000
20
-0.425000
0
SEQEND
8
0
0
POLYLINE
8
0
66
1
40
0.008000
41
0.008000
0
VERTEX
8
0
10
-0.225000
20
-0.400000
0
VERTEX
8
0
10
-0.175000
20
-0.400000
0
SEQEND
8
0
0
POLYLINE
8
0
66
1
40
0.008000
41
0.008000
0
VERTEX
8
0
10
-0.475000
20
-0.550000
0
VERTEX
8
0
10
-0.425000
20
-0.550000
0
SEQEND
8
0
0
POLYLINE
8
0
66
1
40
0.008000
41
0.008000
0
VERTEX
8
0
10
-0.425000
20
-0.575000
0
VERTEX
8
0
10
-0.225000
20
-0.575000
0
VERTEX
8
0
10
-0.225000
20
-0.525000
0
VERTEX
8
0
10
-0.425000
20
-0.525000
0
VERTEX
8
0
10
-0.425000
20
-0.575000
0
SEQEND
8
0
0
POLYLINE
8
0
66
1
40
0.008000
41
0.008000
0
VERTEX
8
0
10
-0.225000
20
-0.550000
0
VERTEX
8
0
10
-0.175000
20
-0.550000
0
SEQEND
8
0
0
POLYLINE
8
0
66
1
40
0.008000
41
0.008000
0
VERTEX
8
0
10
-0.475000
20
-0.700000
0
VERTEX
8
0
10
-0.425000
20
-0.700000
0
SEQEND
8
0
0
POLYLINE
8
0
66
1
40
0.008000
41
0.008000
0
VERTEX
8
0
10
-0.425000
20
-0.725000
0
VERTEX
8
0
10
-0.225000
20
-0.725000
0
VERTEX
8
0
10
-0.225000
20
-0.675000
0
VERTEX
8
0
10
-0.425000
20
-0.675000
0
VERTEX
8
0
10
-0.425000
20
-0.725000
0
SEQEND
8
0
0
POLYLINE
8
0
66
1
40
0.008000
41
0.008000
0
VERTEX
8
0
10
-0.225000
20
-0.700000
0
VERTEX
8
0
10
-0.175000
20
-0.700000
0
SEQEND
8
0
0
TEXT
8
0
10
-1.025000
20
-0.413000
40
0.056000
41
0.892857
1
L
0
TEXT
8
0
10
-1.025000
20
-0.563000
40
0.056000
41
0.892857
1
R
0
TEXT
8
0
10
-1.075000
20
-0.713000
40
0.056000
41
0.892857
1
OK
0
CIRCLE
8
0
10
-0.375000
20
0.170472
40
0.078740
0
POLYLINE
8
0
66
1
40
0.008000
41
0.008000
0
VERTEX
8
0
10
-0.175000
20
0.250000
0
VERTEX
8
0
10
-0.164813
20
0.247041
0
VERTEX
8
0
10
-0.155375
20
0.238516
0
VERTEX
8
0
10
-0.146875
20
0.224951
0
VERTEX
8
0
10
-0.139500
20
0.206875
0
VERTEX
8
0
10
-0.133437
20
0.184815
0
VERTEX
8
0
10
-0.128875
20
0.159297
0
VERTEX
8
0
10
-0.126000
20
0.130850
0
VERTEX
8
0
10
-0.125000
20
0.100000
0
SEQEND
8
0
0
POLYLINE
8
0
66
1
40
0.008000
41
0.008000
0
VERTEX
8
0
10
-0.175000
20
-0.050000
0
VERTEX
8
0
10
-0.164813
20
-0.047000
0
VERTEX
8
0
10
-0.155375
20
-0.038375
0
VERTEX
8
0
10
-0.146875
20
-0.024687
0
VERTEX
8
0
10
-0.139500
20
-0.006500
0
VERTEX
8
0
10
-0.133437
20
0.015625
0
VERTEX
8
0
10
-0.128875
20
0.041125
0
VERTEX
8
0
10
-0.126000
20
0.069437
0
VERTEX
8
0
10
-0.125000
20
0.100000
0
SEQEND
8
0
0
POLYLINE
8
0
66
1
40
0.008000
41
0.008000
0
VERTEX
8
0
10
-0.175000
20
-0.050000
0
VERTEX
8
0
10
-0.185187
20
-0.047000
0
VERTEX
8
0
10
-0.194625
20
-0.038375
0
VERTEX
8
0
10
-0.203125
20
-0.024687
0
VERTEX
8
0
10
-0.210500
20
-0.006500
0
VERTEX
8
0
10
-0.216563
20
0.015625
0
VERTEX
8
0
10
-0.221125
20
0.041125
0
VERTEX
8
0
10
-0.224000
20
0.069437
0
VERTEX
8
0
10
-0.225000
20
0.100000
0
SEQEND
8
0
0
POLYLINE
8
0
66
1
40
0.008000
41
0.008000
0
VERTEX
8
0
10
-0.175000
20
0.250000
0
VERTEX
8
0
10
-0.185187
20
0.247041
0
VERTEX
8
0
10
-0.194625
20
0.238516
0
VERTEX
8
0
10
-0.203125
20
0.224951
0
VERTEX
8
0
10
-0.210500
20
0.206875
0
VERTEX
8
0
10
-0.216563
20
0.184815
0
VERTEX
8
0
10
-0.221125
20
0.159297
0
VERTEX
8
0
10
-0.224000
20
0.130850
0
VERTEX
8
0
10
-0.225000
20
0.100000
0
SEQEND
8
0
0
TEXT
8
0
10
1.588000
20
0.400000
40
0.056000
41
0.714286
50
90.000000
1
5V
0
TEXT
8
0
10
1.788000
20
0.400000
40
0.056000
41
0.892857
50
90.000000
1
Custom
0
TEXT
8
0
10
-1.485000
20
0.700000
40
0.080000
41
0.750000
50
90.000000
1
-
0
TEXT
8
0
10
-1.435000
20
0.950000
40
0.080000
41
0.750000
50
90.000000
1
+
0
POLYLINE
8
0
66
1
40
0.008000
41
0.008000
0
VERTEX
8
0
10
-1.625000
20
-1.050000
0
VERTEX
8
0
10
1.875000
20
-1.050000
0
SEQEND
8
0
0
POLYLINE
8
0
66
1
40
0.008000
41
0.008000
0
VERTEX
8
0
10
-1.625000
20
-1.050000
0
VERTEX
8
0
10
-1.575000
20
-1.100000
0
SEQEND
8
0
0
POLYLINE
8
0
66
1
40
0.008000
41
0.008000
0
VERTEX
8
0
10
-1.625000
20
-1.050000
0
VERTEX
8
0
10
-1.575000
20
-1.000000
0
SEQEND
8
0
0
POLYLINE
8
0
66
1
40
0.008000
41
0.008000
0
VERTEX
8
0
10
1.875000
20
-1.050000
0
VERTEX
8
0
10
1.825000
20
-1.000000
0
SEQEND
8
0
0
POLYLINE
8
0
66
1
40
0.008000
41
0.008000
0
VERTEX
8
0
10
1.875000
20
-1.050000
0
VERTEX
8
0
10
1.825000
20
-1.100000
0
SEQEND
8
0
0
CIRCLE
8
0
10
0.125000
20
-1.050000
40
0.012500
0
TEXT
8
0
10
-0.025000
20
-0.990000
40
0.048000
41
1.041667
1
88.9mm
0
POLYLINE
8
0
66
1
40
0.008000
41
0.008000
0
VERTEX
8
0
10
-1.825000
20
1.100000
0
VERTEX
8
0
10
-1.825000
20
-0.850000
0
SEQEND
8
0
0
POLYLINE
8
0
66
1
40
0.008000
41
0.008000
0
VERTEX
8
0
10
-1.825000
20
1.100000
0
VERTEX
8
0
10
-1.875000
20
1.050000
0
SEQEND
8
0
0
POLYLINE
8
0
66
1
40
0.008000
41
0.008000
0
VERTEX
8
0
10
-1.825000
20
1.100000
0
VERTEX
8
0
10
-1.775000
20
1.050000
0
SEQEND
8
0
0
POLYLINE
8
0
66
1
40
0.008000
41
0.008000
0
VERTEX
8
0
10
-1.825000
20
-0.850000
0
VERTEX
8
0
10
-1.775000
20
-0.800000
0
SEQEND
8
0
0
POLYLINE
8
0
66
1
40
0.008000
41
0.008000
0
VERTEX
8
0
10
-1.825000
20
-0.850000
0
VERTEX
8
0
10
-1.875000
20
-0.800000
0
SEQEND
8
0
0
CIRCLE
8
0
10
-1.825000
20
0.125000
40
0.012500
0
TEXT
8
0
10
-1.765000
20
0.300000
40
0.048000
41
1.041667
50
-90.000000
1
49.53mm
0
ENDSEC
0
EOF

